<svg xmlns="http://www.w3.org/2000/svg" viewBox="0 0 500 500"><g id="freepik--background-simple--inject-2"><path d="M333.83,54.54S259.33,28.05,186.2,70.23s-110,125.9-141.73,193S31,398.49,86.85,429.6s93.79-14.75,172.11-17,99.38,9,164.37-35.28,76.74-148.73,25.47-226S333.83,54.54,333.83,54.54Z" style="fill:#BA1267"></path><path d="M333.83,54.54S259.33,28.05,186.2,70.23s-110,125.9-141.73,193S31,398.49,86.85,429.6s93.79-14.75,172.11-17,99.38,9,164.37-35.28,76.74-148.73,25.47-226S333.83,54.54,333.83,54.54Z" style="fill:#fff;opacity:0.7000000000000001"></path></g><g id="freepik--Character--inject-2"><path d="M205.44,458.11s-8.83,10.27-8.83,11.71a7.32,7.32,0,0,0,.41,2.47h24.45a60.8,60.8,0,0,0,0-6.78c-.2-3.7-.41-10.07-.41-10.07s1.65-2.47,1.23-4.52-2.87-2.47-3.49-2.47c0,0-6.24-1.74-9.25,1.23Z" style="fill:#263238;stroke:#263238;stroke-linecap:round;stroke-linejoin:round"></path><path d="M196.61,469.82a7.32,7.32,0,0,0,.41,2.47h24.45s.1-1.52.09-3.7H197.18A3.29,3.29,0,0,0,196.61,469.82Z" style="fill:#fff;stroke:#263238;stroke-linecap:round;stroke-linejoin:round"></path><line x1="217.36" y1="472.49" x2="217.98" y2="465.3" style="fill:none;stroke:#263238;stroke-linecap:round;stroke-linejoin:round"></line><path d="M300.65,458.11s8.84,10.27,8.84,11.71a7.32,7.32,0,0,1-.41,2.47H284.63a60.8,60.8,0,0,1,0-6.78c.2-3.7.41-10.07.41-10.07s-1.65-2.47-1.24-4.52,2.88-2.47,3.5-2.47c0,0,6.24-1.74,9.24,1.23Z" style="fill:#263238;stroke:#263238;stroke-linecap:round;stroke-linejoin:round"></path><path d="M309.49,469.82a7.32,7.32,0,0,1-.41,2.47H284.63s-.11-1.52-.1-3.7h24.39A3.29,3.29,0,0,1,309.49,469.82Z" style="fill:#fff;stroke:#263238;stroke-linecap:round;stroke-linejoin:round"></path><line x1="288.73" y1="472.49" x2="288.12" y2="465.3" style="fill:none;stroke:#263238;stroke-linecap:round;stroke-linejoin:round"></line><path d="M296.3,213.05c-4.19-4-6.07-4.2-14.68-7.73a94.27,94.27,0,0,0-13.48-4.64c-3.06-.47-6.12-.91-9.19-1.35-2.26-.33-4.46-1.22-6.78-1a111.12,111.12,0,0,0-14.48,2.37,95,95,0,0,0-13.47,4.64c-8.61,3.53-12.81,3.75-17,7.73S177.4,246,177.62,249.93s6.41,7.95,11.26,6S216.27,229,216.27,229,228,256.11,228,261.63s-1.1,7.51-1.54,8.61-9.28,25.18-11.93,36-4.42,29.59-3.53,40.19A123.72,123.72,0,0,1,209.2,376a101.11,101.11,0,0,0-3.31,25.84c0,13,.66,49.91.66,50.79V458l11.26-.88,8.4-41.52,13-53.89,12.81-46.59.87-.07.87.07,12.81,46.59,13,53.89L288,457.08l11.27.88v-5.3c0-.88.66-37.76.66-50.79A101.11,101.11,0,0,0,296.64,376a123.72,123.72,0,0,1-1.77-29.6c.88-10.6-.88-29.37-3.54-40.19s-13.8-34.89-14.24-36-1.55-3.09-1.55-8.61S287.25,229,287.25,229s24.84,25,29.7,26.94,8.72-2,8.95-6S300.5,217,296.3,213.05Z" style="fill:#fff;stroke:#263238;stroke-linecap:round;stroke-linejoin:round"></path><path d="M294.87,346.43c.88-10.6-.88-29.37-3.54-40.19s-13.8-34.89-14.24-36c-.16-.4-.42-.93-.67-1.71H227.1c-.26.78-.51,1.31-.67,1.71-.44,1.11-9.28,25.18-11.93,36s-4.42,29.59-3.53,40.19A123.72,123.72,0,0,1,209.2,376a101.11,101.11,0,0,0-3.31,25.84c0,13,.66,49.91.66,50.79V458l11.26-.88,8.4-41.52,13-53.89,12.81-46.59.87-.07.87.07,12.81,46.59,13,53.89L288,457.08l11.27.88v-5.3c0-.88.66-37.76.66-50.79A101.11,101.11,0,0,0,296.64,376,123.72,123.72,0,0,1,294.87,346.43Z" style="fill:#BA1267;stroke:#263238;stroke-linecap:round;stroke-linejoin:round"></path><path d="M283.05,239.06,271,233l-5.7-32.69-2.29-.34,2.69,24.82H233.92L236.49,201c-.59.16-1.4.4-2.42.72L228.62,233l-8.42,5.45c2,5,4.35,11,5.94,15.78h51.24C278.89,249.59,281.1,243.89,283.05,239.06Z" style="fill:#BA1267;stroke:#263238;stroke-linecap:round;stroke-linejoin:round"></path><polygon points="287.25 228.95 282 223.97 285.13 233.03 287.25 228.95" style="fill:#263238;stroke:#263238;stroke-linecap:round;stroke-linejoin:round"></polygon><polygon points="216.27 228.95 220.89 224.31 217.82 233.03 216.27 228.95" style="fill:#263238;stroke:#263238;stroke-linecap:round;stroke-linejoin:round"></polygon><path d="M206.27,434.89c.15,9.59.28,17.37.28,17.77V458l11.26-.88,4.49-22.19Z" style="fill:#fff;stroke:#263238;stroke-linecap:round;stroke-linejoin:round"></path><path d="M205.44,458.11V454c0-2.88,1.24-6.58,6.58-6.78s6.09,9.72,6.33,10.74Z" style="fill:#263238;stroke:#263238;stroke-linecap:round;stroke-linejoin:round"></path><path d="M283.45,434.48l4.57,22.6,11.27.88v-5.3c0-.41.13-8.4.29-18.18Z" style="fill:#fff;stroke:#263238;stroke-linecap:round;stroke-linejoin:round"></path><path d="M300.92,458.11V454c0-2.88-1.23-6.58-6.57-6.78s-5.59,10-5.84,11.08Z" style="fill:#263238;stroke:#263238;stroke-linecap:round;stroke-linejoin:round"></path><path d="M217.62,459.42H207.28a.73.73,0,0,1-.73-.73h0a.73.73,0,0,1,.73-.73h10.34a.73.73,0,0,1,.73.73h0A.73.73,0,0,1,217.62,459.42Z" style="fill:#fff;stroke:#263238;stroke-linecap:round;stroke-linejoin:round;stroke-width:0.5px"></path><path d="M216.31,461.11H206a.73.73,0,0,1-.73-.73h0a.73.73,0,0,1,.73-.73h10.34a.73.73,0,0,1,.73.73h0A.73.73,0,0,1,216.31,461.11Z" style="fill:#fff;stroke:#263238;stroke-linecap:round;stroke-linejoin:round;stroke-width:0.5px"></path><path d="M215,462.8H204.66a.73.73,0,0,1-.73-.73h0a.72.72,0,0,1,.73-.73H215a.73.73,0,0,1,.73.73h0A.73.73,0,0,1,215,462.8Z" style="fill:#fff;stroke:#263238;stroke-linecap:round;stroke-linejoin:round;stroke-width:0.5px"></path><path d="M213.68,464.49H203.34a.73.73,0,0,1-.73-.73h0a.73.73,0,0,1,.73-.73h10.34a.72.72,0,0,1,.73.73h0A.73.73,0,0,1,213.68,464.49Z" style="fill:#fff;stroke:#263238;stroke-linecap:round;stroke-linejoin:round;stroke-width:0.5px"></path><path d="M288.88,459.42h10.34a.73.73,0,0,0,.73-.73h0a.73.73,0,0,0-.73-.73H288.88a.73.73,0,0,0-.73.73h0A.73.73,0,0,0,288.88,459.42Z" style="fill:#fff;stroke:#263238;stroke-linecap:round;stroke-linejoin:round;stroke-width:0.5px"></path><path d="M290.19,461.11h10.35a.73.73,0,0,0,.73-.73h0a.73.73,0,0,0-.73-.73H290.19a.73.73,0,0,0-.73.73h0A.73.73,0,0,0,290.19,461.11Z" style="fill:#fff;stroke:#263238;stroke-linecap:round;stroke-linejoin:round;stroke-width:0.5px"></path><path d="M291.51,462.8h10.34a.73.73,0,0,0,.73-.73h0a.73.73,0,0,0-.73-.73H291.51a.72.72,0,0,0-.73.73h0A.73.73,0,0,0,291.51,462.8Z" style="fill:#fff;stroke:#263238;stroke-linecap:round;stroke-linejoin:round;stroke-width:0.5px"></path><path d="M292.82,464.49h10.34a.73.73,0,0,0,.73-.73h0a.72.72,0,0,0-.73-.73H292.82a.73.73,0,0,0-.73.73h0A.73.73,0,0,0,292.82,464.49Z" style="fill:#fff;stroke:#263238;stroke-linecap:round;stroke-linejoin:round;stroke-width:0.5px"></path><path d="M188.94,243.73s24.9,19.39,29.19,22.25,8.57,3.47,8.78,4.9,1.22,3.88.2,5.51-3.47,7.35-4.9,8-5.51,1.22-6.53.61.82-1.83,1.43-2a17.73,17.73,0,0,1,1.84-.41,22.12,22.12,0,0,1-4.7-5.3,44.27,44.27,0,0,1-2.65-6.74s-22.25-7.75-28-11.22-8.17-6.74-5.31-11.43" style="fill:#fff;stroke:#263238;stroke-linecap:round;stroke-linejoin:round"></path><path d="M323.65,254.76a6.21,6.21,0,0,0,1.84-3.88c.2-2.45-.21-8-2.45-15.51s-16.53-39.8-16.53-40.62,2-7.55,1-11.23-4.49-9.18-4.49-9.18L291.4,177.6s1.43,12.05,4.49,14.7,5.11,8,6.33,12.45,3.27,18.17,4.69,26.53A41.37,41.37,0,0,0,312.43,247" style="fill:#fff;stroke:#263238;stroke-linecap:round;stroke-linejoin:round"></path><polygon points="306.81 174.41 301.8 185.41 277.04 176.97 284.21 161.25 306.81 174.41" style="fill:#fff;stroke:#263238;stroke-linecap:round;stroke-linejoin:round"></polygon><polygon points="277.93 176.99 290.99 166.79 305.49 174.75 301.4 184.14 277.93 176.99" style="fill:#BA1267"></polygon><path d="M300.18,197.2s-5.92-3.27-7.35-4.9-2-5.51-2.45-9a32.91,32.91,0,0,0-2.65-8.16s1-1.43,3.26.2,3.27,7.14,3.27,7.14,5.51,2.86,6.33,6.33" style="fill:#fff;stroke:#263238;stroke-linecap:round;stroke-linejoin:round"></path><path d="M231.73,147.9a49.47,49.47,0,0,0-16.79-7.51c-9.27-2-19.65,11.48-21.42,24.07s-3.31,35.34-3.31,35.34h27.6s-4.63-34.68-1.54-45.06,14.13-5.08,14.13-5.08Z" style="fill:#263238;stroke:#263238;stroke-linecap:round;stroke-linejoin:round"></path><path d="M262.65,142.82s8.61-9.72,11.7-3.32-.66,13.48-3.75,15.68-3.76,1.11-4.2-.22-5.74-10.82-5.74-10.82Z" style="fill:#263238;stroke:#263238;stroke-linecap:round;stroke-linejoin:round"></path><path d="M242.55,191.62S235,193.17,231.06,198s-3.53,18.33-3.53,23v14.57l13.69.22s-1.76-19.65-2-24.51.22-12.15.88-14.36A32.76,32.76,0,0,1,242.55,191.62Z" style="fill:#fff;stroke:#263238;stroke-linecap:round;stroke-linejoin:round"></path><path d="M258.45,192.07s9.72,3.09,11.93,10.15,3.53,24.3,4,28.49.66,5.74.66,5.74-5.3,1.77-8.17,1.77a38.15,38.15,0,0,1-5.52-.44s.44-24.29-.88-31.14a72.48,72.48,0,0,0-2.65-10.38S258.23,193,258.45,192.07Z" style="fill:#fff;stroke:#263238;stroke-linecap:round;stroke-linejoin:round"></path><path d="M239.9,208.41s-1.55-2.87-.44-9.28.44-15.68.44-15.68h-5.74c-3.32,0-10.6-2.87-11.49-8.17s.22-22.75,11.05-31.36,24.07-4,24.07-4a13,13,0,0,1,7.51,7.51c2.42,6,7.06,13.91,8.39,13.91s5.08,0,4.41,3.09a8.33,8.33,0,0,1-2.2,4.42s-.22,10.38-.22,13.47-2,3.53-7.07,4a31.51,31.51,0,0,1-3.31.11,8.52,8.52,0,0,0-5.3,5c-1.55,4,.22,17.23.22,17.23" style="fill:#fff;stroke:#263238;stroke-linecap:round;stroke-linejoin:round"></path><path d="M265.3,186.43a46,46,0,0,1-15.68-3l11.27,5.48Z" style="fill:#263238;stroke:#263238;stroke-linecap:round;stroke-linejoin:round"></path><line x1="265.74" y1="157.61" x2="268.17" y2="162.25" style="fill:none;stroke:#263238;stroke-linecap:round;stroke-linejoin:round"></line><path d="M269.93,161.81a8.59,8.59,0,0,1-5.08,2.21" style="fill:none;stroke:#263238;stroke-linecap:round;stroke-linejoin:round"></path><path d="M265.3,153.86s-2.21-2.65-4.2-.22-1.77,3.75-1.77,3.75" style="fill:none;stroke:#263238;stroke-linecap:round;stroke-linejoin:round"></path><path d="M257.79,140s-13.25-4.64-24.07,4S221.79,170,222.67,175.28s8.17,8.17,11.49,8.17h5.69l4.24-1.76c-4.63.66-11.26-4.86-9.93-9.5s8-2.21,9.93-.22,3.54-.22,5.75-4-.45-6.84-.45-10.38,7.73-9.93,12.37-10.15a8.35,8.35,0,0,0,3.26-.61A13,13,0,0,0,257.79,140Z" style="fill:#263238;stroke:#263238;stroke-linecap:round;stroke-linejoin:round"></path></g></svg>