<svg xmlns="http://www.w3.org/2000/svg" viewBox="0 0 500 500"><g id="freepik--background-simple--inject-24"><path d="M186.93,446.72C290.58,465.83,393.71,379.63,441.16,297c31.52-54.92,44.09-119.38,25.69-171.83C453.37,86.73,419.46,49.49,369,47.86,312.85,46,267.61,101,209.89,99.93S84,122.48,51,165.37,11.19,286.46,39.3,347.14c16,34.59,44.38,64.22,81.25,82.2,20.27,9.89,42.16,12.69,65.11,17.14Z" style="fill:#BA1267"></path><path d="M186.93,446.72C290.58,465.83,393.71,379.63,441.16,297c31.52-54.92,44.09-119.38,25.69-171.83C453.37,86.73,419.46,49.49,369,47.86,312.85,46,267.61,101,209.89,99.93S84,122.48,51,165.37,11.19,286.46,39.3,347.14c16,34.59,44.38,64.22,81.25,82.2,20.27,9.89,42.16,12.69,65.11,17.14Z" style="fill:#fff;opacity:0.8"></path></g><g id="freepik--Walls--inject-24"><polyline points="41.48 405.92 275.33 313.54 483.43 419.57" style="fill:none;stroke:#263238;stroke-linecap:round;stroke-miterlimit:10"></polyline><line x1="275.33" y1="313.54" x2="275.33" y2="27" style="fill:none;stroke:#263238;stroke-linecap:round;stroke-miterlimit:10"></line></g><g id="freepik--character-1--inject-24"><path d="M164.24,450.06l-5.62,8.6a2,2,0,0,0,.57,2.79l1.57,1.05a2,2,0,0,0,2.67-.37c6.53-7.76,38.63-45.73,44.31-49.63,6.32-4.35,66-13.05,66-13.05h0a3.68,3.68,0,0,0-3.57-3.24c-11.64-.26-51.34-1.17-53.37-1.51-2.37-.39-5.14-.39-4.74-3.16.28-2,4.11-10.25,6.18-14.63a2.35,2.35,0,0,0-1.7-3.32h0a2.34,2.34,0,0,0-2.19.76c-3.63,4.16-17.55,20-21.67,22.73s-54.92,17.65-68.29,21.55a2,2,0,0,0-.88,3.35h0a2,2,0,0,0,1.85.58c7.7-1.57,53.68-10.92,55.86-11.65,2.37-.79,9.49-.39,1.18,12.66S164.24,450.06,164.24,450.06Z" style="fill:#263238"></path><path d="M197.15,414.32a9.34,9.34,0,0,1-9.33-9.34V328.2a9.34,9.34,0,0,1,18.67,0V405A9.34,9.34,0,0,1,197.15,414.32Z" style="fill:#263238"></path><line x1="102.92" y1="277.84" x2="111.38" y2="305.6" style="fill:none;stroke:#263238;stroke-linecap:round;stroke-miterlimit:10;stroke-width:4px"></line><path d="M78.81,286c-.45,1.37,17.36,8.19,17.36,8.19l29.3-15.76s-4.23-8.34-19.66-10.75S80.74,280.25,78.81,286Z" style="fill:#8c8c8c;stroke:#263238;stroke-linecap:round;stroke-linejoin:round"></path><path d="M96.17,294.23s2.41-14,11.57-19.76,17.73,4,17.73,4Z" style="fill:#5e5e5e;stroke:#263238;stroke-linecap:round;stroke-linejoin:round"></path><path d="M173.6,341.63s-15.67,71-19,79.24c-5.72,14.25-21.83,18.55-35.52,13.85C99.38,428,95.58,408.23,95.65,389.54c.07-17,3.88-33,7.9-49.33,1.93-7.87,3.64-15.8,5.41-23.7.3-1.32,1.18-10.27,2.42-10.91L179,270.79s37.17-102.73,49.61-126.31,33.68-29.79,51.74-26.85c15.53,2.53,28.82,17,23.58,49.78s-54,138-55.31,143.22S173.6,341.63,173.6,341.63Z" style="fill:#8c8c8c;stroke:#263238;stroke-linecap:round;stroke-linejoin:round"></path><path d="M173.6,343.59a2.05,2.05,0,0,1-1-.26l-62.22-36a2,2,0,1,1,2-3.4l62.22,36a2,2,0,0,1-1,3.66Z" style="fill:#8c8c8c;stroke:#263238;stroke-linecap:round;stroke-linejoin:round"></path><path d="M246.3,313.63a2,2,0,0,1-1-.27L178,273.31a2,2,0,0,1,2-3.4l67.3,40a2,2,0,0,1,.72,2.69A2,2,0,0,1,246.3,313.63Z" style="fill:#8c8c8c;stroke:#263238;stroke-linecap:round;stroke-linejoin:round"></path><polyline points="248 312.64 173.6 341.63 160.29 400.78" style="fill:none;stroke:#263238;stroke-linecap:round;stroke-miterlimit:10;stroke-width:4px"></polyline><line x1="230.8" y1="140.13" x2="304.27" y2="165.28" style="fill:none;stroke:#263238;stroke-linecap:round;stroke-linejoin:round"></line><path d="M235.84,148.28l50.79,18.6,6-13.86-47-17S237.87,133.12,235.84,148.28Z" style="fill:#8c8c8c;stroke:#263238;stroke-linecap:round;stroke-linejoin:round"></path><path d="M286.63,166.88s-4.17-13.21,6-13.86Z" style="fill:#5e5e5e;stroke:#263238;stroke-linecap:round;stroke-linejoin:round"></path><path d="M191.91,96.73s-3.53-8.15-14.68-12S149,91,141.89,100s-10.61,23.11-8.7,32.62,11.69,17.95,13.05,21.21,1.63,4.35-1.91,6.25-3.8.82-3.53,1.9,4.62,3.54,8.16,3.81a16.6,16.6,0,0,0,6.79-1.09l-.54,3.81s3.26,1.36,9.51-.27,9-4.35,9-4.35,4.89,2.17,7.61,2.17a38,38,0,0,0,7.07-1.09l.27-2.71a34.11,34.11,0,0,0,5.71,0c3-.28,8.7-4.08,8.7-4.08l-2.72-4.08a6.87,6.87,0,0,0,5.44-.27c3.26-1.36,5.71-4.9,5.71-4.9s-5.44.82-5.44-3.53,6.52-14.68,2.72-31S198.71,92.11,191.91,96.73Z" style="fill:#263238;stroke:#263238;stroke-miterlimit:10"></path><path d="M142.92,231.11l-1.3,17.45s3,8.61,8.62,7.54,7.32-6.25,8.4-10.77a102.12,102.12,0,0,0,1.72-11.2Z" style="fill:#fff;stroke:#263238;stroke-linecap:round;stroke-linejoin:round"></path><path d="M111.38,292.83s-8.18,3.6-12.11,9.83S98,320,98.94,329.18s7.53,61.89,7.53,68.77-2.29,12.45-3.6,13.43-12.12,7.53-18.67,10.15-10.48,1-11.46,3.6,1,4.26,3,4.91,13.42,3.28,18,2,7.2-2.95,15.39-4.59,11.79.33,12.12-7.85-.66-17-.33-26.2,4.26-32.75,4.59-47.16.32-27.18.32-27.18l21.29-12.45a26.37,26.37,0,0,0-11.79-12.77C126.77,289.56,111.38,292.83,111.38,292.83Z" style="fill:#fff;stroke:#263238;stroke-linecap:round;stroke-miterlimit:10"></path><path d="M79.76,424s-3.85-.49-4.1,2.11.5,3.6,2.61,4.1" style="fill:none;stroke:#263238;stroke-linecap:round;stroke-miterlimit:10"></path><path d="M138.16,300.89s-14.26,8.77-15.35,13.16-4.66,39.48-4.66,48-4.39,51-5.49,54.57-4.39,4.93-10.42,6.85S89.08,427,87.16,427s-7.13-1.37-7.67.83a3.71,3.71,0,0,0-.12.93A4.68,4.68,0,0,0,82.29,433l.21.09s8.5,4.66,10.42,5.21a24.6,24.6,0,0,0,5.48.82c1.1,0,4.94-.28,10.42-.28s13.16,0,16.18-1.91,2.47-6,2.47-9.88,1.64-20.29,5.76-30.7,13.16-26.6,14.8-38.94,1.37-28.24,1.37-28.24l9.87-4.66A31.39,31.39,0,0,0,152.69,308C146.39,299.79,138.16,300.89,138.16,300.89Z" style="fill:#fff;stroke:#263238;stroke-linecap:round;stroke-miterlimit:10"></path><path d="M82.5,433.05s.28-2.75,4.39-3.29" style="fill:none;stroke:#263238;stroke-linecap:round;stroke-miterlimit:10"></path><path d="M85.52,434.42s.27-2.47,3.84-2.74" style="fill:none;stroke:#263238;stroke-linecap:round;stroke-miterlimit:10"></path><path d="M89.08,436.34a3.9,3.9,0,0,1,3.57-2.75" style="fill:none;stroke:#263238;stroke-linecap:round;stroke-miterlimit:10"></path><path d="M92.92,438.26s-1.1-2.47,3.56-2.2" style="fill:none;stroke:#263238;stroke-linecap:round;stroke-miterlimit:10"></path><path d="M166.73,160.2s2.62,6.88,2,9.17-10.8,4.26-15.39,6.22-10.81,30.79-13.75,37.34A140.43,140.43,0,0,0,134,228.64s6.22,4.92,11.13,6.23S152,236.5,152,236.5s6.22,11.14,7.53,15.07,2.62,8.51,1.31,9.82-10.15,8.84-12.11,10.15-29.8,15.72-35,19l-5.24,3.27s16.7,1.31,28.49,7.86,20.3,25.22,20.3,25.22,46.83-8.84,59.27-19,12.45-16,12.45-27.83-2.29-44.54-2.29-52.4-6.88-48.79-10.81-52.72-26.53-4.26-27.18-6.22-2-8.52-2-8.52Z" style="fill:#BA1267;stroke:#263238;stroke-miterlimit:10"></path><path d="M171.19,241.38c4.11,3.66,10.91,9.14,17.84,12.17" style="fill:none;stroke:#263238;stroke-linecap:round;stroke-miterlimit:10"></path><path d="M167.25,237.65s.5.51,1.39,1.36" style="fill:none;stroke:#263238;stroke-linecap:round;stroke-miterlimit:10"></path><path d="M175.89,250.44s9.68,6.57,15.56,8.64" style="fill:none;stroke:#263238;stroke-linecap:round;stroke-miterlimit:10"></path><path d="M223.87,286.58a18.72,18.72,0,0,1,.77,3.27" style="fill:none;stroke:#263238;stroke-linecap:round;stroke-miterlimit:10"></path><path d="M216,278.44a11.7,11.7,0,0,1,6.74,5.58" style="fill:none;stroke:#263238;stroke-linecap:round;stroke-miterlimit:10"></path><path d="M184.88,267c1,.3,2,.54,2.77.69" style="fill:none;stroke:#263238;stroke-linecap:round;stroke-miterlimit:10"></path><path d="M170.36,261.5s5.53,2.44,10.78,4.31" style="fill:none;stroke:#263238;stroke-linecap:round;stroke-miterlimit:10"></path><path d="M176.88,187.05c13.38-1.15,19.11-10.74,21.34-16.32-5.06-.64-9.27-1.18-9.55-2-.66-2-2-8.52-2-8.52h-20s2.62,6.88,2,9.17c-.26.92-2.07,1.79-4.43,2.63C163.1,176.46,161.4,188.39,176.88,187.05Z" style="fill:#fff;stroke:#263238;stroke-miterlimit:10"></path><path d="M177.54,169.41a16.56,16.56,0,0,0,9.72-6.52c-.32-1.51-.56-2.69-.56-2.69h-20s2.37,6.25,2,8.81A20.34,20.34,0,0,0,177.54,169.41Z" style="fill:#263238;stroke:#263238;stroke-miterlimit:10"></path><path d="M185.93,110.6a146.64,146.64,0,0,1-18.76,12.51c-10.33,5.7-15.22,9-15.22,9s5.7,18.76,7.06,23.38c2.18,7.34,14.41,12.23,22.3,10.6s13.05-9.79,13.59-16-1.08-23.65-1.08-23.65S185.93,122,185.93,110.6Z" style="fill:#fff;stroke:#263238;stroke-miterlimit:10"></path><line x1="164.16" y1="140.48" x2="169.62" y2="139.57" style="fill:none;stroke:#263238;stroke-miterlimit:10;stroke-width:0.5px"></line><line x1="187.47" y1="135.93" x2="182.55" y2="137.93" style="fill:none;stroke:#263238;stroke-miterlimit:10;stroke-width:0.5px"></line><path d="M177.31,128.4s.23,7.54.68,8.91,3.66,2.29,2.06,5.49-5.71,4.12-7.31.92" style="fill:none;stroke:#263238;stroke-miterlimit:10"></path><path d="M168.34,135.19c.43,1.67.14,3.19-.66,3.4s-1.8-1-2.24-2.65-.13-3.19.66-3.4S167.9,133.52,168.34,135.19Z" style="fill:#263238"></path><path d="M184.4,132.49c.19,1.71-.32,3.18-1.14,3.27s-1.64-1.23-1.83-2.94.32-3.19,1.15-3.28S184.22,130.77,184.4,132.49Z" style="fill:#263238"></path><path d="M160.65,130.72s1.36-5.17,6.79-4.08" style="fill:none;stroke:#263238;stroke-linecap:round;stroke-miterlimit:10;stroke-width:2px"></path><path d="M178.05,126.37s5.43-3.26,8.7.54" style="fill:none;stroke:#263238;stroke-linecap:round;stroke-miterlimit:10;stroke-width:2px"></path><path d="M171,151.11s7.07,3,12.5-2.45" style="fill:none;stroke:#263238;stroke-miterlimit:10"></path><path d="M153,135.88s-3.26-3.8-4.62.55.82,6,2.45,7.34,5.44,2.45,5.44,2.45Z" style="fill:none;stroke:#263238;stroke-miterlimit:10"></path><path d="M194.09,130.72s3-5.71,4.35,0-3.31,11.24-3.58,12.05Z" style="fill:none;stroke:#263238;stroke-miterlimit:10"></path><path d="M205.7,243.71l-.66,13.1s-23.25,22.92-29.14,26.52-12.12,6.55-12.12,6.55-6.75,2.54-9.17,3.51c-3.23,1.29-10.34,3-12.49,4.3s-6.89,6.25-9.26,9.26-5.39,5.39-4.52,6.47,2.8-.87,2.8-.87-2.37,3-1.3,4.1,3-.43,3-.43-1.29,2.8.21,3.23,3.88-1.73,3.88-1.73-.43,2.37,3,.43,9.9-7.53,9.9-7.53,5.6-.87,8.83-3.45a23.41,23.41,0,0,0,5.39-7.11l3.29-2h0s17-5.57,30.79-11.79,25.21-15.06,25.54-16,.65-25.87.65-25.87S210,244,205.7,243.71Z" style="fill:#fff;stroke:#263238;stroke-linecap:round;stroke-linejoin:round"></path><path d="M131.14,312.55s6-6.24,7.53-7.75a16,16,0,0,1,3-2.37" style="fill:none;stroke:#263238;stroke-linecap:round;stroke-linejoin:round"></path><path d="M132.86,316.22s5.81-6.25,7.32-7.76a40.87,40.87,0,0,1,4.74-3.66" style="fill:none;stroke:#263238;stroke-linecap:round;stroke-linejoin:round"></path><path d="M137,317.72c1.51-1.29,7.54-8.18,9.48-8.83a12,12,0,0,0,2.58-1.07" style="fill:none;stroke:#263238;stroke-linecap:round;stroke-linejoin:round"></path><path d="M206,196.88,199.8,245A36.49,36.49,0,0,0,214.87,248c9.17,0,18.34-5.57,18.34-5.57s-9.83-57.64-11.79-62.88-9.17-5.89-10.81-5.56" style="fill:#BA1267;stroke:#263238;stroke-miterlimit:10"></path><path d="M151.34,187.71s-1,13.75-2.62,21.29-1.31,20.63,3.27,27.5" style="fill:none;stroke:#263238;stroke-miterlimit:10"></path><path d="M111.69,295.94s-5.82,6.25-6.68,8a46.25,46.25,0,0,0-2.8,8.18c0,.87.22,1.51,1.72.43s2.59-4.95,3.45-6.46,3.66-6,3.66-6" style="fill:none;stroke:#263238;stroke-linecap:round;stroke-linejoin:round"></path><path d="M142.7,246.19s-6.68,12.06-9.48,18.95c-2.21,5.46-5.78,14.57-7.17,18.12-1.67,1.43-10.33,8.86-12.86,11.39a26.28,26.28,0,0,0-6.46,11.41c-.86,3.88-1.94,8-1.07,9.26a1.51,1.51,0,0,0,2.15.44l1.72-.22s1.51,2.37,3.45-.43,5.17-8,6.24-9.05,5.39-4.52,5.39-4.52a83.84,83.84,0,0,1-4.31,8c-1.29,1.72.65,3,1.94,1.51s5.82-6.25,7.75-9.91,2.16-9.26,2.37-10.12c.13-.52.72-2.17,1.17-3.43,0,0,7.66-10.14,13.26-15.53s7.33-16.79,8.83-20.46" style="fill:#fff;stroke:#263238;stroke-linecap:round;stroke-linejoin:round"></path><path d="M109.53,315.54s4.1-8.61,5.82-10.77a59.73,59.73,0,0,0,3.66-5.38" style="fill:none;stroke:#263238;stroke-linecap:round;stroke-linejoin:round"></path><path d="M107.81,315.76s.22-6.47,1.72-9.91,5.6-8.4,5.6-8.4" style="fill:none;stroke:#263238;stroke-linecap:round;stroke-linejoin:round"></path><line x1="171.38" y1="314.96" x2="176.68" y2="341" style="fill:none;stroke:#263238;stroke-linecap:round;stroke-miterlimit:10;stroke-width:4px"></line><path d="M145.83,318.34c-.46,1.37,17.35,8.19,17.35,8.19l29.3-15.75s-4.23-8.35-19.65-10.76S147.76,312.55,145.83,318.34Z" style="fill:#8c8c8c;stroke:#263238;stroke-linecap:round;stroke-linejoin:round"></path><path d="M163.18,326.53s2.41-14,11.57-19.76,17.73,4,17.73,4Z" style="fill:#5e5e5e;stroke:#263238;stroke-linecap:round;stroke-linejoin:round"></path></g><g id="freepik--character-2--inject-24"><path d="M279.05,412.26a114.6,114.6,0,0,1-8.36,9c-3.35,3-9.71,6.36-12.72,7.7s4.35,5,8.7,5,10.37-1.34,17.4-1.34,13.39,0,14.39-5.36-5-21.08-5-21.08l-15.39,3Z" style="fill:#BA1267;stroke:#263238;stroke-miterlimit:10"></path><path d="M269,430.67c-6.13.66-9.82-.41-11.64-1.22-1,1.57,5.38,4.57,9.3,4.57,4.35,0,10.37-1.34,17.4-1.34s13.39,0,14.39-5.36a10.24,10.24,0,0,0,.07-2.53,25.15,25.15,0,0,1-4.75,3.2C289.09,430.34,278.38,429.67,269,430.67Z" style="fill:#fff;stroke:#263238;stroke-linecap:round;stroke-miterlimit:10"></path><path d="M257,339l14.06,73a16.08,16.08,0,0,0,11.71,2c7-1.34,14.73-5.69,14.73-5.69L283.4,346S264.66,330.27,257,339Z" style="fill:#263238;stroke:#263238;stroke-linecap:round;stroke-miterlimit:10"></path><path d="M236.22,424.65s-2.68,7.36-4,9-15.39,13.72-18.41,15.4.67,3.68,3.35,4.35,13.39-1,20.75-4,18.74-4,20.75-7.36-4.35-19.75-4.35-19.75S237.89,426.65,236.22,424.65Z" style="fill:#BA1267;stroke:#263238;stroke-miterlimit:10"></path><path d="M222.49,450.75c-4.72,1.53-7.53,1.44-9.22.82a9.7,9.7,0,0,0,3.87,1.86c2.68.67,13.39-1,20.75-4s18.74-4,20.75-7.36c.54-.91.47-2.78.08-5-1.3.72-2.7,1.41-4.1,2C249.94,441,233.87,447.07,222.49,450.75Z" style="fill:#fff;stroke:#263238;stroke-linecap:round;stroke-miterlimit:10"></path><path d="M266,314.21s-24.76-6.36-29.11-4.35-11,11.71-11,20.75,4.35,93,4.35,93a44.86,44.86,0,0,0,14.06,4,16.69,16.69,0,0,0,12.38-4.35l-3-86.35,13.72-16.73S270,317.22,266,314.21Z" style="fill:#263238;stroke:#263238;stroke-linecap:round;stroke-miterlimit:10"></path><path d="M251.28,337.63s-10-1.67-15.73-8" style="fill:none;stroke:#fff;stroke-linecap:round;stroke-miterlimit:10"></path><path d="M306.23,437.9a4.91,4.91,0,0,1-4.91-4.91V398.12a4.92,4.92,0,1,1,9.83,0V433A4.91,4.91,0,0,1,306.23,437.9Z" style="fill:#263238"></path><path d="M306.23,407.45a9.33,9.33,0,0,1-9.33-9.33v-39.3a9.34,9.34,0,1,1,18.67,0v39.3A9.34,9.34,0,0,1,306.23,407.45Z" style="fill:#263238"></path><path d="M297.88,432.5,253.58,453a1.93,1.93,0,0,0,0,3.52l.07,0c2.46,1,10.29-2.14,10.29-2.14l31.47-10.63a10.23,10.23,0,0,1,10.8,2.45l21.62,26.53s3.44,3,4.42-.49-15.72-31-15.72-31,.49-4.91,6.39-6.87C327.33,433,346,424.15,346,424.15s2-2-1-2.46-36.35,7.86-36.35,7.86l-6.39-13.26s-2.45-.49-2,2.95S301.32,430,297.88,432.5Z" style="fill:#263238;stroke:#263238;stroke-linecap:round;stroke-miterlimit:10"></path><path d="M264.48,457.52a4.64,4.64,0,1,1-4.64-4.64A4.64,4.64,0,0,1,264.48,457.52Z" style="fill:#263238;stroke:#263238;stroke-linecap:round;stroke-miterlimit:10"></path><path d="M346.92,427.38a4.64,4.64,0,1,1-4.64-4.64A4.63,4.63,0,0,1,346.92,427.38Z" style="fill:#263238;stroke:#263238;stroke-linecap:round;stroke-miterlimit:10"></path><path d="M329.66,469.89a4.64,4.64,0,1,1-4.64-4.64A4.63,4.63,0,0,1,329.66,469.89Z" style="fill:#263238;stroke:#263238;stroke-linecap:round;stroke-miterlimit:10"></path><path d="M257,339s-14.8,5-9.67,9.53c1.88,1.66,48,27.2,53,27.51,15.72,1,60.91-25.05,63.37-30.95s-12.28-11.79-22.6-17.68-31.44-11.3-36.35-8.84S257,339,257,339Z" style="fill:#BA1267;stroke:#263238;stroke-miterlimit:10"></path><path d="M299.09,134.9s-4.33,7.51-4.33,11.55.29,4.61-1.44,6.92-7.5,2.6-7.5,5.2,1.44,5.48,3.17,6.35l1.73.86s-.29,9.52-.29,14.14,0,8.37,2.6,9.24,13.85.86,13.85.86l4.33,15.87s10.68-4.9,16.74-8.08a105.35,105.35,0,0,1,10.68-4.9s-5.2-12.41-3.76-14.72,12.41-4.62,16.45-15.87,1.74-28.57-6.35-34.63-24.24-8.08-24.24-8.08-6.34-7.22-12.69-9.24-21.36,2.89-21.94,13.86S299.09,134.9,299.09,134.9Z" style="fill:#fff;stroke:#263238;stroke-linecap:round;stroke-miterlimit:10"></path><path d="M310.92,173.57l-2.83.42a15.08,15.08,0,0,1-2.8,8" style="fill:none;stroke:#263238;stroke-linecap:round;stroke-miterlimit:10"></path><path d="M345,127.69c-8.08-6.06-24.24-8.08-24.24-8.08s-6.34-7.22-12.69-9.24-21.36,2.89-21.94,13.86,13,10.67,13,10.67-1.73,5.78-.86,9.53,5.77,12.12,7.21,13.85,1.15,2,4.91.29,6.34,3.46,4.9,8.65-4.33,6.35-4.33,6.35a21.78,21.78,0,0,0,8.37,6.06c5.2,2,15.58-1.44,15.58-1.44,1.45-2.31,12.41-4.62,16.45-15.87S353.06,133.75,345,127.69Z" style="fill:#263238;stroke:#263238;stroke-linecap:round;stroke-miterlimit:10"></path><path d="M289.09,155.74a12.07,12.07,0,0,1,0-4.62c.69-4,3-7,5.09-6.59a2.36,2.36,0,0,1,.82.33" style="fill:none;stroke:#263238;stroke-linecap:round;stroke-miterlimit:10"></path><line x1="289.53" y1="149.64" x2="310.35" y2="158.57" style="fill:none;stroke:#263238;stroke-linecap:round;stroke-miterlimit:10"></line><path d="M340.93,125.67a3.91,3.91,0,0,0-2.59,5.77c2,4.62,6.35,2,7.79,8.37a44.56,44.56,0,0,1-3.75,30.3c-6.35,12.41-10.39,11-8.66,14.14s10.39,5.2,15.87,3.46,9-6.92,9-6.92-2.31,6.92-1.16,7.21,9.24,3.47,17.61-11,4-20.78,4-20.78,2.31,6.06,2.59,2.6,4-16.74-13-27.71S340.93,125.67,340.93,125.67Z" style="fill:#263238;stroke:#263238;stroke-linecap:round;stroke-miterlimit:10"></path><path d="M291.29,233.25s-6.51-8.14-8.41-10.85-4.61-3-8.41-4.61-6.51-4.34-8.13-3.53a2.2,2.2,0,0,0-.55,3.8c1.36,1.08,3.8,2.17,4.89,3a25.73,25.73,0,0,1,2.17,1.9l-8.14,4.88-3.8-.27s-3-8.68-4.07-7.32-.54,5.7.82,9.76,2.44,6.79,4.88,6.79,16.55-2.45,16.55-2.45L287,246.81l9.5-8.13Z" style="fill:#fff;stroke:#263238;stroke-linecap:round;stroke-miterlimit:10"></path><path d="M265,231.08l-3.25-.27s-4.89-9.5-6.24-7.87,1.35,7.6,1.35,7.6,3,5.15,5.16,5.15,6.78-2.71,6.78-2.71" style="fill:#fff;stroke:#263238;stroke-linecap:round;stroke-miterlimit:10"></path><path d="M265,233.79H260.1s-4.88-9.49-6.24-7.86,1.36,7.59,1.36,7.59,3,5.16,5.15,5.16,6.78-2.72,6.78-2.72" style="fill:#fff;stroke:#263238;stroke-linecap:round;stroke-miterlimit:10"></path><path d="M281,235.15s-20.35,6.24-21.71,5.42-8.4-7.32-7.59-9.49,3.25-.54,4.07.81,4.61,4.61,4.61,4.61S272.85,230,275.29,230s4.61,2.72,4.61,2.72" style="fill:#fff;stroke:#263238;stroke-linecap:round;stroke-miterlimit:10"></path><path d="M305.83,216.49a125.45,125.45,0,0,0-14.06,14.72c-6.36,8-8,12.72-8,16.06s-.34,55.22-.34,55.22-1.34,6.36-.67,7.7l.67,1.34s-13.38,1.34-20.41,0-11.05,1-12.05,9.71a144.74,144.74,0,0,0-.67,18.4s24.1,13.05,32.8,16.73,22.76,10,33.13,6,26.44-9.37,32.46-17.07,6.7-13.05,6.7-21.08-1-13.05,0-18.41,7.69-37.82,10-53.88,4.68-28.11-1.34-37.48S352.68,200.42,349,199.42s-27.78,9.37-33.8,11.71A32.64,32.64,0,0,0,305.83,216.49Z" style="fill:#fff;stroke:#263238;stroke-linecap:round;stroke-miterlimit:10"></path><path d="M284.23,323.66s0,6.77,8.71,14.51" style="fill:none;stroke:#263238;stroke-linecap:round;stroke-miterlimit:10"></path><path d="M283.4,330.94s1.8,9.49,9.54,15.62" style="fill:none;stroke:#263238;stroke-linecap:round;stroke-miterlimit:10"></path><path d="M348.1,239.59c-3.17,8.13-9.36,20-20.44,28.11" style="fill:none;stroke:#263238;stroke-linecap:round;stroke-miterlimit:10"></path><path d="M351,230.52s-.31,1.48-1.06,3.92" style="fill:none;stroke:#263238;stroke-linecap:round;stroke-miterlimit:10"></path><path d="M346.47,252s-4.48,8.51-15.68,16.13" style="fill:none;stroke:#263238;stroke-linecap:round;stroke-miterlimit:10"></path><path d="M342.3,191.05s-27.44,10-35.14,16.4-10.37,16.4-10.37,16.4,14.06-10.38,28.11-14.39A153.58,153.58,0,0,0,351,199.08Z" style="fill:#fff;stroke:#263238;stroke-linecap:round;stroke-miterlimit:10"></path><path d="M257.3,305.17s-7-4-8.7-5-4.69-1.67-5.36-.33a5.78,5.78,0,0,0-.67,2.34s-5.35.33-6,2-1,2.67-1,2.67-3,.67-3,3-1.67,5.35-.33,6a2.32,2.32,0,0,0,3.35-1,24.73,24.73,0,0,1,1.34-2.35l3,1.34s3,3,5.69,3.68a34.23,34.23,0,0,0,6.69.67l7-11Z" style="fill:#fff;stroke:#263238;stroke-linecap:round;stroke-miterlimit:10"></path><path d="M292.1,233.22s-7,3.35-10,8.7-15.72,64.59-15.72,64.59l-9-1.34s-3.68-2.68-7.36,4-1,11.38-1,11.38,21.09,8.36,24.1,9.37,7.36,4.68,10.37,1,21.09-67.27,21.09-67.27" style="fill:#fff;stroke:#263238;stroke-linecap:round;stroke-miterlimit:10"></path><path d="M313.51,287.15l-2.09,35.93a5.62,5.62,0,0,0,8,5.41l58.36-27.44a5.61,5.61,0,0,0,3.2-4.55l3.56-37.39a5.61,5.61,0,0,0-7.85-5.66l-57.37,25.34A9.74,9.74,0,0,0,313.51,287.15Z" style="fill:#BA1267;stroke:#263238;stroke-miterlimit:10"></path><path d="M384.54,258.82a5.5,5.5,0,0,0-2,.47l-57.37,25.34a9.73,9.73,0,0,0-5.8,8.35l-2.09,35.94v.1a5.66,5.66,0,0,0,2.15-.53l58.36-27.44a5.61,5.61,0,0,0,3.2-4.55l3.56-37.39C384.54,259,384.54,258.91,384.54,258.82Z" style="fill:#BA1267;stroke:#263238;stroke-miterlimit:10"></path><path d="M352.16,292.86h-.1a5.89,5.89,0,0,0-5.89,5.8l-1.07,63.5a2.89,2.89,0,0,1-1.45,2.49,2.92,2.92,0,0,1-2.89.07l-3.38-1.8c-4.06,2.14-8.27,4.2-12.4,6a5.9,5.9,0,0,0,2,1.81l8.2,4.36a14.74,14.74,0,0,0,21.66-12.77l1.07-63.5A5.89,5.89,0,0,0,352.16,292.86Z" style="fill:#263238"></path></g></svg>