<?xml version="1.0" encoding="UTF-8" standalone="no"?>
<!DOCTYPE svg PUBLIC "-//W3C//DTD SVG 20010904//EN"
              "http://www.w3.org/TR/2001/REC-SVG-20010904/DTD/svg10.dtd">

<svg xmlns="http://www.w3.org/2000/svg"
     width="4.84444in" height="4.84444in"
     viewBox="0 0 436 436">
  <path id="Zaimportowana ścieżka"
        fill="none" stroke="black" stroke-width="1"
        d="M 253.83,179.79
           C 252.18,178.88 250.91,177.36 250.33,175.54
             250.21,175.09 250.00,174.68 249.74,174.32
             249.31,173.48 248.74,172.72 248.07,172.06
             247.75,171.77 247.33,171.59 246.86,171.59
             246.77,171.59 246.67,171.60 246.58,171.61
             245.82,169.99 245.14,172.61 245.14,172.61
             245.14,172.61 243.68,172.61 242.85,172.61
             241.72,170.67 241.15,174.10 242.09,171.27
             240.00,171.27 241.15,171.27 241.15,171.27
             240.57,171.63 240.13,172.20 239.93,172.87
             239.82,173.27 239.76,173.70 239.76,174.14
             239.76,176.24 241.08,178.03 242.93,178.74
             246.25,186.74 242.84,189.23 242.93,189.23
             243.02,189.23 246.47,186.53 246.47,186.53
             246.47,186.53 253.83,179.79 253.83,179.79 Z
           M 209.37,154.42
           C 208.39,155.74 207.79,157.37 207.74,159.14
             207.85,160.38 208.15,161.56 208.63,162.66
             209.02,164.50 210.88,163.83 211.96,163.83
             213.04,163.83 214.84,167.63 215.45,167.63
             212.47,164.00 213.34,162.72 211.45,167.30
             210.95,166.13 209.66,165.36 210.11,165.36
             210.56,165.36 209.60,167.00 209.60,167.62
             209.60,168.73 209.60,169.97 212.92,169.97
             213.06,172.22 213.50,174.40 214.19,176.45
             215.22,177.45 216.20,176.85 216.89,175.45
             218.11,173.28 216.48,172.45 216.12,172.45
             215.76,172.45 213.72,169.54 215.52,169.54
             214.81,169.34 214.73,169.14 214.21,168.60
             213.69,168.06 213.09,168.11 212.41,167.76
             210.78,166.92 210.30,164.48 210.03,162.86
             209.14,157.71 208.84,153.18 196.33,153.18
             197.44,150.18 199.01,147.39 200.93,144.89M 201.47,257.20
           C 200.22,256.73 198.65,255.98 197.25,255.41
             195.02,254.66 192.92,253.62 190.99,252.35
             192.85,252.35 194.44,257.82 194.44,257.82
             195.75,257.27 196.69,255.99 196.75,254.49
             196.75,254.49 196.75,254.49 196.75,254.49
             196.69,253.87 195.99,253.63 195.38,253.56
             192.89,253.26 190.80,251.92 188.38,251.25
             184.85,250.25 180.14,250.77 177.48,249.68
             174.82,248.59 151.16,232.98 151.16,232.98
             151.16,232.98 143.54,222.69 135.64,211.25
             129.20,201.92 126.77,197.53 122.13,196.17
             117.42,199.45 115.63,203.66 116.32,209.32
             120.48,211.48 123.32,215.02 128.25,215.02
             130.75,221.28 133.68,227.35 136.97,233.18
             139.70,236.18 141.00,238.37 146.46,242.09
             151.92,245.81 172.27,255.30 172.27,255.30
             172.27,255.30 185.38,266.51 194.64,265.92
             194.69,265.92 194.75,265.92 194.80,265.92
             197.21,265.92 199.40,264.95 200.98,263.37
             202.73,261.65 203.87,258.11 201.47,257.20 Z
           M 170.17,234.82
           C 175.37,239.10 180.99,242.89 186.96,246.14
             199.44,252.65 229.44,261.69 229.44,261.69
             231.09,264.46 233.00,267.07 235.11,269.49
             241.00,275.42 253.41,282.57 253.41,282.57
             253.41,282.57 254.68,272.67 264.41,269.49
             264.41,269.49 248.28,251.22 241.85,246.05
             238.13,243.05 222.34,234.21 209.72,227.29
             209.36,211.92 198.01,206.65 198.01,206.65
             186.93,214.04 177.45,223.63 170.17,234.80
             170.17,234.80 170.17,234.82 170.17,234.82 Z
           M 295.81,268.76
           C 387.13,268.10 460.96,193.86 460.96,102.38
             460.96,10.49 386.47,-64.00 294.57,-64.00
             294.16,-64.00 293.75,-64.00 293.34,-64.00
             289.21,-69.53 297.04,-70.91 299.82,-65.00
             301.82,-66.94 303.91,-68.00 305.91,-66.13
             303.80,-62.84 303.80,-62.84 303.80,-62.84
             303.80,-62.84 297.90,-67.53 295.20,-70.03
             291.91,-73.03 281.69,-82.96 275.63,-89.03
             266.31,-98.41 263.44,-101.21 255.70,-105.58
             248.03,-110.28 222.64,-122.45 214.76,-127.28
             214.76,-127.28 173.00,234.68 173.00,234.68
             173.00,234.68 178.70,240.84 182.47,242.86
             193.40,248.69 215.86,254.86 230.47,259.34
             234.75,267.87 235.71,270.56 243.96,276.52
             251.46,281.93 260.88,286.52 270.35,292.52
             272.31,293.89 274.03,295.58 275.43,297.52
             277.31,298.90 276.61,299.57 276.76,299.90
             280.08,303.68 282.94,303.39 282.94,303.39
             284.95,303.15 286.73,302.16 287.99,300.71
             290.71,297.65 291.05,293.19 292.99,289.57
             294.75,286.23 297.99,284.13 298.69,280.27
             299.14,276.65 298.62,268.91 295.81,268.76 Z
           M 212.82,161.71
           C 210.32,161.57 204.24,160.85 201.08,164.71
             198.16,168.81 206.83,180.71 214.87,182.63
             217.28,182.78 219.77,182.85 222.28,182.85
             290.51,182.85 345.82,127.54 345.82,59.31
             345.82,-6.40 294.50,-60.14 229.76,-64.00
             235.20,-64.78 242.48,-66.32 249.11,-67.12
             247.01,-68.34 245.91,-78.42 247.83,-80.99
             235.23,164.64 216.21,161.90 212.82,161.71 Z
           M 270.66,146.80
           C 268.17,144.03 265.71,140.94 273.19,140.94
             280.67,140.94 272.19,144.16 271.57,147.60
             271.07,150.45 270.17,155.52 268.57,158.11
             267.93,158.97 266.91,159.52 265.76,159.52
             265.53,159.52 265.31,159.50 265.10,159.46
             262.25,159.02 256.16,158.10 249.37,157.10
             249.37,157.10 253.05,172.38 253.05,172.38
             258.17,171.61 263.17,171.10 267.05,171.52
             272.07,175.19 275.34,181.12 275.34,187.81
             275.34,192.02 274.05,195.93 271.84,199.16
             271.84,199.16 273.49,199.16 273.49,199.16
             275.49,200.06 278.49,198.51 279.60,196.49
             280.92,193.21 274.37,189.23 279.60,194.83
             279.42,191.48 279.40,189.83 279.40,189.83
             279.51,187.68 279.78,185.56 280.21,183.51
             280.35,182.80 280.42,182.05 280.42,181.29
             280.42,179.41 279.99,177.64 279.22,176.06
             272.43,151.33 272.31,148.63 270.66,146.80 Z
           M 211.15,182.77
           C 213.92,184.27 216.98,185.30 220.22,185.77
             218.47,181.32 216.84,176.86 214.93,172.94
             214.49,172.36 214.05,171.78 213.60,171.23
             213.60,171.23 212.17,170.44 212.17,170.44
             212.17,170.44 204.10,169.91 204.10,169.91
             204.10,169.91 205.71,179.74 211.15,182.77 Z
           M 221.35,228.49
           C 220.07,228.78 218.72,228.93 217.33,228.93
             214.61,228.93 212.03,228.35 209.71,227.29
             209.71,227.29 202.83,235.53 202.83,235.53
             204.59,239.58 207.09,242.89 210.60,242.58
             219.28,241.82 227.27,235.35 227.60,225.78
             227.56,219.56 226.97,213.47 225.87,207.55
             225.87,207.55 225.85,207.55 225.85,207.55
             225.85,207.55 227.48,227.00 221.35,228.49 Z
           M 199.32,221.89
           C 199.32,221.89 195.51,182.46 196.84,174.52
             198.20,166.33 201.54,162.69 206.84,162.45
             213.47,166.82 216.58,176.54 220.43,186.15
             224.28,195.76 227.88,216.15 227.59,225.78
             227.30,235.41 219.31,241.78 210.59,242.58
             201.87,243.38 199.32,221.89 199.32,221.89 Z
           M 128.22,161.54
           C 128.22,161.54 133.52,167.85 133.52,167.85
             133.52,167.85 136.08,164.10 136.08,164.10
             136.08,164.10 128.22,161.54 128.22,161.54 Z
           M 133.67,154.93
           C 133.67,154.93 130.30,154.93 130.30,154.93
             130.30,154.91 130.30,154.90 130.30,154.88
             130.30,153.98 131.03,153.25 131.93,153.25
             131.94,153.25 131.94,153.25 131.95,153.25
             132.88,153.27 133.63,154.01 133.67,154.93
             133.67,154.93 133.67,154.93 133.67,154.93 Z
           M 132.33,172.20
           C 132.33,172.20 135.53,171.26 135.53,171.26
             135.59,171.43 135.62,171.60 135.62,171.79
             135.62,172.53 135.13,173.16 134.45,173.36
             134.31,173.40 134.15,173.42 133.99,173.42
             133.21,173.42 132.55,172.91 132.33,172.20
             132.33,172.20 132.33,172.20 132.33,172.20 Z
           M 122.32,161.69
           C 122.32,161.69 120.69,164.61 120.69,164.61
             120.17,164.31 119.83,163.74 119.83,163.10
             119.83,162.80 119.91,162.52 120.04,162.27
             120.32,161.78 120.85,161.45 121.46,161.45
             121.78,161.45 122.07,161.54 122.32,161.69
             122.32,161.69 122.32,161.69 122.32,161.69 Z
           M 135.80,157.87
           C 135.89,158.12 135.95,158.39 135.95,158.67
             135.95,159.90 134.95,160.90 133.72,160.90
             133.14,160.90 132.61,160.67 132.21,160.31
             132.35,160.33 132.49,160.34 132.64,160.34
             134.16,160.34 135.45,159.29 135.80,157.87
             135.80,157.87 135.80,157.87 135.80,157.87 Z
           M 126.89,164.40
           C 127.02,164.68 127.09,164.99 127.09,165.32
             127.09,166.56 126.09,167.55 124.86,167.55
             124.33,167.55 123.84,167.37 123.46,167.06
             123.53,167.06 123.60,167.07 123.68,167.07
             124.43,167.07 125.12,166.81 125.68,166.39
             126.30,165.90 126.74,165.20 126.89,164.40
             126.89,164.40 126.89,164.40 126.89,164.40 Z
           M 139.94,177.17
           C 139.94,177.17 132.94,180.86 130.30,181.28
             130.06,181.29 129.82,181.30 129.57,181.30
             127.66,181.30 125.85,180.91 124.20,180.19
             124.20,180.19 126.69,182.40 128.99,182.65
             134.20,195.03 124.70,195.03 124.70,195.03
             124.70,195.03 139.94,177.17 139.94,177.17 Z
           M 117.69,175.11
           C 117.16,172.19 116.86,170.92 116.69,173.34
             116.53,166.42 106.85,166.42 106.85,166.42
             105.44,165.51 104.51,163.92 104.51,162.12
             104.51,161.83 104.53,161.55 104.58,161.28
             104.29,158.20 108.01,155.44 110.19,153.58
             114.19,150.22 118.54,146.41 119.59,141.04
             118.94,139.48 118.59,139.48 118.59,139.48
             118.74,139.46 118.90,139.45 119.06,139.45
             120.93,139.45 122.44,140.96 122.44,142.83
             122.44,144.53 121.17,145.94 119.53,146.17
             119.53,146.17 123.35,146.17 123.35,146.17
             123.35,147.36 0.00,147.36 0.00,147.36
             0.00,147.36 0.24,146.92 -0.26,146.92
             0.05,146.27 0.26,145.56 0.32,144.80
             0.25,143.80 2.54,145.80 2.75,146.09
             3.63,147.42 4.14,149.02 4.14,150.74
             4.14,151.37 4.07,151.98 3.94,152.57
             3.44,154.77 1.71,156.48 0.13,158.01
             -3.26,160.97 -6.94,163.62 -10.85,165.91
             -12.80,165.25 -8.87,166.91 -5.45,166.91
             115.80,169.53 118.70,174.31 117.69,175.11 Z
           M 116.92,174.08
           C 115.76,171.70 113.42,171.70 113.42,171.70
             113.42,171.70 108.27,167.81 117.42,177.25
             126.57,186.69 122.32,185.25 121.87,185.25
             124.93,184.69 124.56,182.33 124.56,182.33
             124.56,182.33 136.90,192.41 136.90,192.41
             136.90,192.41 136.90,192.41 136.90,192.41
             145.02,194.61 156.90,184.87 147.90,182.92
             147.90,182.92 144.11,179.77 144.11,179.77
             145.03,179.27 145.87,178.63 146.58,177.87
             148.75,175.65 148.84,172.56 147.58,169.36
             145.58,164.21 143.45,160.44 136.16,152.83
             128.16,144.49 117.43,152.41 114.39,160.36
             111.35,168.31 116.92,174.08 116.92,174.08 Z
           M 134.55,149.23
           C 132.28,146.21 128.67,144.26 124.60,144.26
             117.73,144.26 112.16,149.83 112.16,156.70
             112.16,159.50 113.09,162.09 114.65,164.17
             116.51,164.17 0.00,164.17 0.00,164.17
             0.00,164.17 -1.46,171.60 -1.46,171.60
             -1.46,171.60 -8.02,164.33 -8.02,164.33
             -8.31,163.13 -9.39,162.23 -10.68,162.23
             -10.80,162.23 -10.91,162.24 -11.02,162.25
             -12.23,162.44 -13.16,163.49 -13.16,164.76
             -13.16,164.93 -13.14,165.09 -13.11,165.25
             -13.11,165.25 -9.57,164.71 -9.57,164.71
             -10.19,165.38 -10.61,166.24 -10.73,167.20
             -11.04,169.55 -7.11,173.20 -2.33,176.20
             -2.33,176.20 5.08,182.38 6.55,183.33
             9.55,185.33 12.18,188.96 12.18,188.96
             12.18,188.96 7.24,173.03 7.24,173.03
             8.24,173.30 9.30,173.44 10.40,173.44
             17.27,173.44 22.84,167.87 22.84,161.00
             22.84,158.20 21.91,155.61 20.35,153.53
             20.35,153.53 134.55,149.23 134.55,149.23 Z
           M 135.00,183.29
           C 129.00,187.29 124.74,191.01 122.44,194.78
             126.95,212.32 147.17,212.60 161.08,226.21
             166.28,231.30 170.17,234.82 170.17,234.82
             170.17,234.82 206.81,208.40 206.81,208.40
             206.81,208.40 189.50,190.14 180.22,183.00
             170.94,175.86 160.56,172.63 151.92,174.61
             145.77,176.56 140.07,179.52 135.00,183.29
             135.00,183.29 135.00,183.29 135.00,183.29 Z
           M 135.00,183.29
           C 129.00,187.29 124.74,191.01 122.44,194.78
             126.95,212.32 147.17,212.60 161.08,226.21
             166.28,231.30 170.17,234.82 170.17,234.82
             170.17,234.82 206.81,208.40 206.81,208.40
             206.81,208.40 189.50,190.14 180.22,183.00
             170.94,175.86 160.56,172.63 151.92,174.61
             145.77,176.56 140.07,179.52 135.00,183.29
             135.00,183.29 135.00,183.29 135.00,183.29 Z
           M 209.72,205.22
           C 209.68,204.90 209.63,204.59 209.55,204.29
             209.36,203.53 205.98,198.50 206.05,198.41
             206.12,198.32 205.90,197.98 205.98,197.98
             197.77,188.90 188.37,180.92 178.01,174.29
             166.37,167.04 158.65,170.01 151.66,174.03
             156.41,177.40 163.91,183.03 168.58,186.90
             173.79,191.45 179.30,195.66 185.08,199.50
             188.49,201.76 190.30,203.50 196.50,205.74
             199.50,206.82 204.13,208.89 207.37,207.74
             208.65,207.58 209.65,206.53 209.72,205.22
             209.72,205.22 209.72,205.22 209.72,205.22 Z
           M 84.26,185.00
           C 84.26,185.00 97.90,192.88 97.90,192.88
             101.29,194.88 104.04,194.94 104.26,194.94
             104.48,194.94 101.51,190.02 98.12,188.07
             98.12,188.07 84.48,180.19 84.48,180.19
             81.08,178.19 78.33,178.13 78.33,179.97
             78.33,181.81 80.86,183.05 84.26,185.00 Z
           M 143.63,169.87
           C 143.63,168.03 140.88,164.96 137.49,163.00
             137.49,163.00 123.84,155.12 123.84,155.12
             122.48,154.22 120.87,153.66 119.13,153.59
             119.13,153.59 119.13,153.59 119.13,153.59
             116.20,153.59 104.46,159.26 98.70,162.59
             92.94,165.92 80.37,173.93 78.41,177.33
             77.77,178.44 100.41,194.91 103.22,194.33
             109.39,193.04 120.55,187.73 126.22,184.24
             135.57,178.54 140.86,173.79 142.72,171.77
             143.64,170.77 143.63,170.26 143.63,169.87 Z
           M 148.44,262.38
           C 148.39,262.39 148.34,262.39 148.30,262.39
             148.25,262.39 148.20,262.39 148.15,262.38
             148.15,262.38 62.85,236.58 62.85,236.58
             62.41,236.48 62.08,236.08 62.08,235.61
             62.08,235.05 62.53,234.61 63.08,234.61
             63.20,234.61 63.32,234.63 63.43,234.67
             63.43,234.67 148.73,260.46 148.73,260.46
             149.22,260.53 149.60,260.95 149.60,261.46
             149.60,262.02 149.14,262.47 148.59,262.47
             148.54,262.47 148.49,262.47 148.44,262.46
             148.44,262.46 148.44,262.38 148.44,262.38 Z
           M 148.44,285.83
           C 148.44,285.83 148.43,285.83 148.43,285.83
             148.19,285.83 147.96,285.74 147.79,285.60
             147.79,285.60 62.49,212.89 62.49,212.89
             62.28,212.71 62.14,212.43 62.14,212.13
             62.14,211.58 62.59,211.13 63.14,211.13
             63.39,211.13 63.62,211.22 63.79,211.37
             63.79,211.37 149.09,284.07 149.09,284.07
             149.30,284.25 149.44,284.53 149.44,284.83
             149.44,285.08 149.35,285.31 149.20,285.48
             149.02,285.69 148.74,285.83 148.44,285.83
             148.44,285.83 148.44,285.83 148.44,285.83
             148.44,285.83 148.44,285.83 148.44,285.83 Z
           M 266.24,330.39
           C 266.19,330.40 266.14,330.40 266.10,330.40
             266.05,330.40 266.00,330.40 265.95,330.39
             265.95,330.39 180.65,304.59 180.65,304.59
             180.24,304.47 179.94,304.08 179.94,303.63
             179.94,303.53 179.95,303.44 179.98,303.35
             180.10,302.94 180.49,302.64 180.94,302.64
             181.04,302.64 181.14,302.65 181.23,302.68
             181.23,302.68 266.53,328.48 266.53,328.48
             266.93,328.61 267.22,328.99 267.22,329.43
             267.22,329.98 266.78,330.42 266.24,330.43
             266.24,330.43 266.24,330.39 266.24,330.39 Z
           M 266.24,353.85
           C 266.24,353.85 266.24,353.85 266.24,353.85
             265.99,353.85 265.76,353.76 265.59,353.61
             265.59,353.61 180.29,280.90 180.29,280.90
             180.08,280.72 179.94,280.44 179.94,280.14
             179.94,279.59 180.39,279.14 180.94,279.14
             181.19,279.14 181.42,279.23 181.59,279.38
             181.59,279.38 266.89,352.08 266.89,352.08
             267.10,352.26 267.24,352.54 267.24,352.84
             267.24,353.09 267.15,353.32 267.00,353.49
             266.82,353.71 266.55,353.85 266.24,353.85
             266.24,353.85 266.24,353.85 266.24,353.85 Z
           M 351.54,284.83
           C 351.54,284.83 351.54,289.52 351.54,289.52
             351.54,289.52 278.43,331.74 278.43,331.74
             278.43,331.74 278.43,327.05 278.43,327.05
             278.43,327.05 351.54,284.83 351.54,284.83 Z
           M 164.69,261.38
           C 164.69,261.38 164.69,266.07 164.69,266.07
             164.69,266.07 278.43,331.74 278.43,331.74
             278.43,331.74 278.43,327.05 278.43,327.05
             278.43,327.05 164.69,261.38 164.69,261.38 Z
           M 282.76,319.86
           C 282.76,319.86 347.21,282.64 347.21,282.64
             349.60,281.26 349.60,279.02 347.21,277.64
             347.21,277.64 242.14,217.00 242.14,217.00
             240.84,216.34 239.37,215.96 237.81,215.96
             236.25,215.96 234.78,216.34 233.48,217.00
             233.48,217.00 169.00,254.19 169.00,254.19
             166.61,255.57 166.61,257.81 169.00,259.19
             169.00,259.19 274.10,319.86 274.10,319.86
             275.40,320.52 276.87,320.90 278.43,320.90
             279.99,320.90 281.46,320.52 282.76,319.86
             282.76,319.86 282.76,319.86 282.76,319.86 Z
           M 169.00,254.19
           C 169.00,254.19 233.48,217.00 233.48,217.00
             234.78,216.34 236.25,215.96 237.81,215.96
             239.37,215.96 240.84,216.34 242.14,217.00
             242.14,217.00 347.21,277.66 347.21,277.66
             349.60,279.04 351.54,281.21 351.54,282.51
             351.54,282.51 351.54,284.85 351.54,284.85
             351.54,284.85 278.43,327.07 278.43,327.07
             278.43,327.07 164.69,261.38 164.69,261.38
             164.69,261.38 164.69,259.00 164.69,259.00
             164.69,257.74 166.63,255.57 169.00,254.19 Z
           M 233.74,216.82
           C 233.74,216.82 233.74,221.51 233.74,221.51
             233.74,221.51 160.63,263.73 160.63,263.73
             160.63,263.73 160.63,259.04 160.63,259.04
             160.63,259.04 233.74,216.82 233.74,216.82 Z
           M 46.89,193.37
           C 46.89,193.37 46.89,198.06 46.89,198.06
             46.89,198.06 160.63,263.73 160.63,263.73
             160.63,263.73 160.63,259.04 160.63,259.04
             160.63,259.04 46.89,193.37 46.89,193.37 Z
           M 165.00,251.85
           C 165.00,251.85 229.45,214.63 229.45,214.63
             231.84,213.25 231.84,211.01 229.45,209.63
             229.45,209.63 124.34,149.00 124.34,149.00
             123.04,148.34 121.57,147.96 120.01,147.96
             118.45,147.96 116.98,148.34 115.68,149.00
             115.68,149.00 51.22,186.18 51.22,186.18
             48.83,187.56 48.83,189.80 51.22,191.18
             51.22,191.18 156.30,251.85 156.30,251.85
             157.60,252.52 159.08,252.90 160.65,252.90
             162.22,252.90 163.69,252.52 165.00,251.85
             165.00,251.85 165.00,251.85 165.00,251.85 Z
           M 51.22,186.18
           C 51.22,186.18 115.68,149.00 115.68,149.00
             116.98,148.34 118.45,147.96 120.01,147.96
             121.57,147.96 123.04,148.34 124.34,149.00
             124.34,149.00 229.41,209.66 229.41,209.66
             231.80,211.04 233.74,213.21 233.74,214.51
             233.74,214.51 233.74,216.85 233.74,216.85
             233.74,216.85 160.63,259.00 160.63,259.00
             160.63,259.00 46.89,193.37 46.89,193.37
             46.89,193.37 46.89,191.00 46.89,191.00
             46.89,189.73 48.83,187.56 51.22,186.18 Z
           M 66.00,271.45
           C 66.00,271.45 66.00,191.00 66.00,191.00
             66.00,191.00 60.27,191.00 60.27,191.00
             60.27,191.00 60.27,271.42 60.27,271.42
             60.27,271.42 60.27,271.42 60.27,271.42
             60.32,271.94 60.65,272.39 61.11,272.59
             61.72,272.90 62.41,273.08 63.14,273.08
             63.87,273.08 64.56,272.90 65.17,272.59
             65.62,272.39 65.94,271.96 66.00,271.45
             66.00,271.45 66.00,271.45 66.00,271.45 Z
           M 63.14,226.20
           C 63.14,226.20 140.32,181.65 140.32,181.65
             140.32,181.65 140.32,158.19 140.32,158.19
             140.32,158.19 63.14,202.75 63.14,202.75
             63.14,202.75 63.14,226.20 63.14,226.20 Z
           M 131.00,233.93
           C 131.00,233.93 131.00,153.50 131.00,153.50
             131.00,153.50 125.26,153.50 125.26,153.50
             125.26,153.50 125.26,233.93 125.26,233.93
             125.26,233.93 125.26,233.93 125.26,233.93
             125.31,234.45 125.64,234.90 126.10,235.10
             126.71,235.41 127.40,235.59 128.13,235.59
             128.86,235.59 129.55,235.41 130.16,235.10
             130.62,234.90 130.95,234.46 131.00,233.93
             131.00,233.93 131.00,233.93 131.00,233.93 Z
           M 151.31,320.70
           C 151.31,320.70 151.31,240.28 151.31,240.28
             151.31,240.28 145.57,240.28 145.57,240.28
             145.57,240.28 145.57,320.70 145.57,320.70
             145.57,320.70 145.57,320.70 145.57,320.70
             145.62,321.22 145.95,321.67 146.41,321.87
             147.02,322.18 147.71,322.36 148.44,322.36
             149.17,322.36 149.86,322.18 150.47,321.87
             150.93,321.67 151.26,321.23 151.31,320.70
             151.31,320.70 151.31,320.70 151.31,320.70 Z
           M 216.31,283.18
           C 216.31,283.18 216.31,202.75 216.31,202.75
             216.31,202.75 210.56,202.75 210.56,202.75
             210.56,202.75 210.56,283.18 210.56,283.18
             210.56,283.18 210.56,283.18 210.56,283.18
             210.61,283.70 210.94,284.15 211.40,284.35
             212.01,284.66 212.70,284.84 213.43,284.84
             214.16,284.84 214.85,284.66 215.46,284.35
             215.92,284.15 216.26,283.71 216.31,283.18
             216.31,283.18 216.31,283.18 216.31,283.18 Z
           M 148.44,275.45
           C 148.44,275.45 225.62,230.89 225.62,230.89
             225.62,230.89 225.62,207.44 225.62,207.44
             225.62,207.44 148.44,252.00 148.44,252.00
             148.44,252.00 148.44,275.45 148.44,275.45 Z
           M 183.81,339.46
           C 183.81,339.46 183.81,259.00 183.81,259.00
             183.81,259.00 178.07,259.00 178.07,259.00
             178.07,259.00 178.07,339.42 178.07,339.42
             178.07,339.42 178.07,339.42 178.07,339.42
             178.11,339.94 178.45,340.39 178.91,340.59
             179.52,340.90 180.21,341.08 180.94,341.08
             181.67,341.08 182.36,340.90 182.97,340.59
             183.42,340.40 183.75,339.97 183.81,339.46
             183.81,339.46 183.81,339.46 183.81,339.46 Z
           M 180.94,294.21
           C 180.94,294.21 258.12,249.66 258.12,249.66
             258.12,249.66 258.12,226.20 258.12,226.20
             258.12,226.20 180.94,270.76 180.94,270.76
             180.94,270.76 180.94,294.21 180.94,294.21 Z
           M 248.80,301.94
           C 248.80,301.94 248.80,221.51 248.80,221.51
             248.80,221.51 243.06,221.51 243.06,221.51
             243.06,221.51 243.06,301.94 243.06,301.94
             243.06,301.94 243.06,301.94 243.06,301.94
             243.11,302.46 243.44,302.91 243.90,303.11
             244.51,303.42 245.20,303.60 245.93,303.60
             246.66,303.60 247.35,303.42 247.96,303.11
             248.42,302.91 248.75,302.47 248.80,301.94
             248.80,301.94 248.80,301.94 248.80,301.94 Z
           M 269.11,388.71
           C 269.11,388.71 269.11,308.29 269.11,308.29
             269.11,308.29 263.37,308.29 263.37,308.29
             263.37,308.29 263.37,388.71 263.37,388.71
             263.37,388.71 263.37,388.71 263.37,388.71
             263.41,389.23 263.75,389.68 264.21,389.88
             264.82,390.19 265.51,390.37 266.24,390.37
             266.97,390.37 267.66,390.19 268.27,389.88
             268.73,389.68 269.07,389.24 269.11,388.71
             269.11,388.71 269.11,388.71 269.11,388.71 Z
           M 266.24,343.46
           C 266.24,343.46 343.42,298.91 343.42,298.91
             343.42,298.91 343.42,275.45 343.42,275.45
             343.42,275.45 266.24,320.01 266.24,320.01
             266.24,320.01 266.24,343.46 266.24,343.46 Z
           M 334.10,351.19
           C 334.10,351.19 334.10,270.76 334.10,270.76
             334.10,270.76 328.36,270.76 328.36,270.76
             328.36,270.76 328.36,351.19 328.36,351.19
             328.36,351.19 328.36,351.19 328.36,351.19
             328.41,351.71 328.74,352.16 329.20,352.36
             329.81,352.67 330.50,352.85 331.23,352.85
             331.96,352.85 332.65,352.67 333.26,352.36
             333.72,352.16 334.06,351.72 334.10,351.19
             334.10,351.19 334.10,351.19 334.10,351.19 Z
           M 253.27,87.14
           C 258.27,86.66 265.65,86.23 270.27,95.82
             274.89,105.41 277.97,120.32 277.97,120.32
             272.61,123.15 266.57,124.92 260.16,125.32
             260.16,125.32 253.39,105.91 253.39,105.91
             253.39,105.91 249.49,92.10 253.27,87.14 Z
           M 253.27,87.14
           C 258.27,86.66 265.65,86.23 270.27,95.82
             274.89,105.41 277.97,120.32 277.97,120.32
             272.61,123.15 266.57,124.92 260.16,125.32
             260.16,125.32 253.39,105.91 253.39,105.91
             253.39,105.91 249.49,92.10 253.27,87.14 Z
           M 279.76,131.84
           C 278.98,126.99 273.15,103.24 270.60,97.30
             266.90,88.68 262.75,86.99 255.21,87.30
             249.11,93.17 277.21,88.78 281.13,88.78
             281.13,88.78 288.86,111.78 288.86,111.78
             287.05,114.88 275.94,138.22 271.31,142.92
             271.31,142.92 259.00,170.69 259.00,170.69
             261.88,167.29 274.00,151.16 277.00,147.32
             281.75,141.38 281.12,140.19 279.76,131.84 Z
           M 230.64,83.33
           C 234.10,82.47 239.64,80.63 241.83,75.92
             241.52,77.87 240.61,79.63 239.31,81.00
             237.23,82.92 230.84,85.34 230.84,85.34
             230.84,85.34 230.64,83.33 230.64,83.33 Z
           M 225.82,64.23
           C 225.82,64.23 226.39,72.55 226.39,72.55
             226.39,72.55 221.56,72.09 221.56,72.09
             221.56,72.09 225.02,64.26 225.02,64.26
             225.16,64.21 225.31,64.18 225.46,64.18
             225.59,64.18 225.71,64.20 225.82,64.23
             225.82,64.23 225.82,64.23 225.82,64.23 Z
           M 218.17,66.00
           C 218.18,66.79 218.82,67.44 219.61,67.46
             219.63,67.46 219.65,67.46 219.67,67.46
             220.44,67.46 221.06,66.84 221.06,66.07
             221.06,66.07 221.06,66.07 221.06,66.07
             221.05,65.27 220.41,64.63 219.61,64.61
             219.59,64.61 219.58,64.61 219.56,64.61
             218.79,64.61 218.17,65.23 218.17,66.00
             218.17,66.00 218.17,66.00 218.17,66.00
             218.17,66.00 218.17,66.00 218.17,66.00 Z
           M 231.88,58.59
           C 231.88,58.59 234.95,59.68 234.95,59.68
             235.03,59.50 235.07,59.30 235.07,59.08
             235.07,58.40 234.63,57.82 234.02,57.61
             233.85,57.55 233.66,57.52 233.47,57.52
             232.75,57.52 232.14,57.96 231.88,58.59
             231.88,58.59 231.88,58.59 231.88,58.59 Z
           M 217.53,60.92
           C 217.53,60.92 220.60,59.84 220.60,59.84
             220.40,59.21 219.81,58.75 219.11,58.75
             218.93,58.75 218.76,58.78 218.60,58.84
             217.94,59.07 217.46,59.71 217.46,60.45
             217.46,60.61 217.49,60.77 217.53,60.92
             217.53,60.92 217.53,60.92 217.53,60.92 Z
           M 231.37,74.33
           C 231.37,74.33 228.20,75.92 228.20,75.92
             228.72,75.93 229.26,75.94 229.81,75.94
             268.45,75.94 299.78,44.61 299.78,5.96
             299.78,-32.15 269.33,-63.14 231.43,-64.00
             231.42,-64.00 231.41,-64.00 231.40,-64.00
             193.20,-64.00 162.23,-33.03 162.23,5.17
             162.23,43.35 193.18,74.31 231.37,74.33
             231.37,74.33 231.37,74.33 231.37,74.33 Z
           M 229.84,64.92
           C 229.85,65.72 230.49,66.36 231.29,66.38
             231.31,66.38 231.32,66.38 231.34,66.38
             232.10,66.38 232.73,65.76 232.73,65.00
             232.72,64.20 232.08,63.55 231.28,63.53
             231.26,63.53 231.25,63.53 231.23,63.53
             230.46,63.53 229.84,64.15 229.84,64.92
             229.84,64.92 229.84,64.92 229.84,64.92
             229.84,64.92 229.84,64.92 229.84,64.92 Z
           M 212.67,63.49
           C 212.81,63.98 213.09,64.40 213.48,64.71
             213.60,64.71 213.73,64.70 213.85,64.70
             219.59,64.70 224.24,69.35 224.24,75.09
             224.24,80.70 219.79,85.27 214.23,85.47
             214.23,85.47 217.62,89.90 217.62,89.90
             217.62,89.90 219.62,96.78 219.62,96.78
             219.62,96.78 219.36,96.78 219.36,96.78
             219.36,96.78 219.25,96.78 219.25,96.78
             219.66,96.65 220.04,96.47 220.39,96.24
             220.39,96.24 220.33,96.24 220.33,96.24
             220.33,96.24 220.43,96.05 220.43,96.05
             220.43,96.05 220.24,95.84 220.24,95.84
             220.24,95.84 220.02,95.73 220.02,95.73
             220.10,95.66 220.17,95.58 220.23,95.50
             220.57,95.08 220.84,94.60 221.03,94.07
             220.56,92.66 218.03,95.18 217.74,95.18
             217.74,95.18 217.62,95.18 217.62,95.18
             217.62,95.18 217.75,95.18 217.75,95.18
             219.13,95.05 219.19,96.93 220.12,98.18
             221.05,99.43 222.46,100.57 225.46,100.28
             225.46,100.28 225.85,99.93 225.85,99.93
             225.85,99.93 225.80,99.93 225.80,99.93
             226.04,99.89 226.28,99.84 226.51,99.76
             226.51,99.76 226.29,99.48 226.29,99.48
             226.29,99.48 226.07,99.48 226.07,99.48
             226.34,99.36 226.60,99.22 226.84,99.05
             226.84,99.05 226.59,98.86 226.59,98.86
             226.75,98.74 226.89,98.60 227.02,98.45
             227.35,98.06 227.61,97.61 227.78,97.12
             228.03,95.99 228.17,94.80 228.20,93.58
             228.22,93.38 228.28,93.20 228.38,93.04
             228.38,93.04 228.13,92.64 228.13,92.64
             228.13,92.64 235.33,94.18 235.33,94.18
             235.53,94.02 235.74,93.88 235.96,93.76
             236.45,93.54 236.97,93.36 237.50,93.22
             237.50,93.22 237.41,60.00 237.41,60.00
             237.41,60.00 236.67,60.00 236.67,60.00
             229.94,64.64 225.54,72.41 225.54,81.20
             225.54,85.54 226.61,89.63 228.50,93.22
             225.45,90.22 230.06,88.96 230.19,88.96
             230.32,88.96 228.13,88.48 225.87,88.10
             223.10,89.30 220.61,91.06 218.56,93.22
             218.56,93.22 217.75,93.22 217.75,93.22
             224.87,92.02 230.29,85.82 230.29,78.36
             230.29,70.03 223.54,63.27 215.21,63.27
             214.34,63.27 213.50,63.35 212.67,63.49
             212.67,63.49 212.67,63.49 212.67,63.49 Z
           M 228.01,63.08
           C 228.17,62.86 228.37,62.67 228.61,62.53
             228.61,62.53 228.50,62.39 228.50,62.39
             228.50,62.39 228.50,62.70 228.50,62.70
             228.50,62.70 228.05,62.56 228.05,62.56
             228.37,62.41 228.70,62.29 229.04,62.18
             229.04,62.18 228.67,62.05 228.67,62.05
             228.34,61.29 228.49,63.05 228.42,63.05
             228.42,63.05 228.18,63.05 228.18,63.05
             229.17,62.45 230.34,62.10 231.59,62.10
             231.93,62.10 232.28,62.13 232.61,62.18
             234.08,64.80 235.74,64.80 235.74,64.80
             235.74,64.80 235.74,64.94 235.74,64.94
             235.74,65.06 235.74,65.19 235.74,65.32
             235.74,65.45 235.74,65.48 235.45,65.48
             235.45,65.48 235.45,65.48 235.45,65.48
             235.00,64.90 234.73,64.16 234.73,63.37
             234.73,62.95 234.80,62.55 234.94,62.18
             234.94,62.18 234.94,62.18 234.94,62.18
             234.94,62.23 234.94,62.27 234.94,62.32
             234.94,62.32 234.94,62.40 234.94,62.40
             234.94,62.42 234.94,62.43 234.94,62.45
             234.94,62.47 234.94,62.48 234.94,62.50
             234.91,62.50 234.89,62.50 234.86,62.50
             234.83,62.50 234.81,62.50 234.78,62.50
             234.78,62.50 234.59,62.50 234.59,62.50
             234.59,62.55 234.59,62.59 234.38,62.59
             234.38,62.59 234.15,62.59 234.15,62.59
             233.50,63.56 232.40,64.20 231.15,64.22
             230.89,64.27 230.62,64.29 230.35,64.29
             229.38,64.29 228.48,64.00 227.74,63.49
             227.74,63.49 227.74,63.49 227.74,63.49
             227.17,63.05 226.72,62.45 226.46,61.76
             227.93,64.86 227.64,63.68 228.00,63.08
             228.00,63.08 228.01,63.08 228.01,63.08 Z
           M 214.32,63.08
           C 214.47,62.94 214.64,62.81 214.83,62.72
             214.83,62.72 214.83,62.72 214.83,62.72
             214.83,62.72 215.06,62.46 215.06,62.46
             215.06,62.46 214.89,62.46 214.89,62.46
             214.89,62.46 214.97,62.46 214.97,62.46
             214.97,62.46 214.97,62.46 214.97,62.46
             214.97,62.46 215.09,62.46 215.09,62.46
             215.09,62.46 215.60,62.06 215.60,62.06
             215.60,62.06 215.60,62.23 215.60,62.23
             215.60,62.23 215.60,62.35 215.60,62.35
             215.60,62.35 215.60,62.71 215.60,62.71
             215.60,62.71 215.60,62.84 215.60,62.84
             215.60,62.84 215.60,62.84 215.60,62.84
             215.60,62.84 215.72,62.84 215.72,62.84
             216.04,62.84 216.39,62.84 216.72,62.84
             218.32,62.84 220.54,66.67 217.72,66.67
             218.05,67.25 218.25,67.93 218.25,68.65
             218.25,68.92 218.22,69.18 218.17,69.43
             218.01,69.44 217.84,69.45 217.68,69.45
             217.51,69.45 217.34,69.44 217.18,69.43
             217.18,69.43 217.18,69.43 217.18,69.43
             217.18,69.43 217.18,69.43 217.18,69.51
             217.18,69.51 217.18,69.43 217.18,69.43
             217.18,69.43 217.18,69.52 217.18,69.52
             217.18,69.52 216.93,69.52 216.93,69.52
             216.85,69.50 216.78,69.47 216.71,69.43
             216.71,69.43 216.71,69.43 216.71,69.49
             216.71,69.49 216.55,69.49 216.55,69.49
             216.55,69.49 216.64,69.43 216.64,69.43
             216.64,69.43 216.64,69.43 216.64,69.43
             215.99,70.45 214.85,71.13 213.54,71.13
             213.53,71.13 213.51,71.13 213.49,71.13
             213.35,71.14 213.21,71.15 213.07,71.15
             212.62,71.15 212.19,71.08 211.78,70.96
             210.57,70.50 209.64,69.48 209.28,68.22
             214.91,65.80 214.40,64.00 214.82,63.57
             214.82,63.57 214.32,63.08 214.32,63.08 Z
           M 220.00,51.14
           C 217.62,52.66 214.39,55.74 216.18,68.43
             217.57,78.36 221.66,82.59 223.46,83.30
             225.26,84.01 228.07,90.50 223.46,90.50
             223.46,90.50 224.02,96.17 224.02,96.17
             224.02,96.17 218.34,104.66 221.17,109.61
             225.31,107.94 229.12,105.60 232.47,102.75
             238.68,97.16 238.84,95.46 239.29,93.75
             239.29,93.75 237.89,80.97 237.89,80.97
             237.89,80.97 239.67,82.50 242.89,79.49
             245.54,77.00 246.31,72.94 244.10,70.86
             243.29,70.12 242.22,69.67 241.04,69.67
             240.59,69.67 240.16,69.74 239.75,69.86
             238.11,70.40 236.80,71.68 236.23,73.31
             236.23,73.31 236.23,73.31 236.23,73.31
             236.23,74.13 235.56,74.80 234.73,74.80
             233.91,74.80 233.24,74.13 233.24,73.31
             233.24,73.31 235.55,73.31 235.55,73.31
             235.55,73.31 249.00,73.31 249.00,73.31
             249.00,73.31 249.00,73.31 249.00,73.31
             237.32,62.54 221.65,59.82 220.00,51.14 Z
           M 245.00,79.72
           C 244.84,77.84 247.18,73.72 249.05,69.05
             251.65,62.57 252.15,53.40 246.50,47.28
             240.85,41.16 228.31,37.90 219.06,46.51
             211.01,50.14 210.06,61.12 215.72,63.68
             215.72,63.68 245.00,79.72 245.00,79.72 Z
           M 248.80,50.78
           C 249.36,48.85 244.80,48.69 242.80,48.69
             241.96,47.93 240.85,47.47 239.64,47.47
             239.06,47.47 238.50,47.58 237.99,47.77
             237.99,47.77 248.80,50.78 248.80,50.78 Z
           M 247.08,43.00
           C 247.77,42.85 248.50,42.77 249.25,42.77
             251.11,42.77 252.86,43.26 254.36,44.13
             255.99,44.92 257.34,46.20 258.20,47.79
             260.20,51.92 260.77,55.55 261.20,61.12
             261.51,64.45 262.14,67.69 263.07,70.81
             263.51,72.66 264.08,74.47 264.77,76.22
             265.72,77.34 266.43,77.22 267.17,75.94
             268.73,72.00 266.17,71.65 265.40,79.92
             272.56,82.60 275.40,82.66 266.65,79.83
             268.00,77.10 267.86,76.22 267.79,76.22
             265.47,76.11 263.31,75.39 261.46,74.22
             258.76,72.38 257.52,69.22 256.77,66.14
             256.34,64.38 256.02,62.53 255.83,60.64
             255.66,58.71 255.57,56.71 255.57,54.68
             255.57,54.24 255.57,53.79 255.58,53.35
             255.60,52.88 255.61,52.40 255.61,51.92
             255.61,49.77 255.41,47.67 255.02,45.64
             254.43,43.20 252.08,41.76 251.01,39.52
             250.02,37.66 249.46,35.52 249.46,33.26
             249.46,32.90 249.47,32.55 249.50,32.20
             250.27,33.41 250.72,34.85 250.72,36.39
             250.72,39.17 249.27,41.61 247.08,43.00
             247.08,43.00 247.08,43.00 247.08,43.00 Z
           M 237.31,111.96
           C 237.31,111.96 249.87,112.00 249.87,112.00
             249.87,112.00 249.96,114.42 249.96,114.42
             249.96,114.42 237.21,114.35 237.21,114.35
             237.21,114.35 237.31,111.96 237.31,111.96 Z
           M 244.18,85.62
           C 239.15,85.73 234.23,86.26 229.44,87.17
             228.22,89.96 227.21,92.90 226.44,95.93
             226.25,96.77 226.14,97.65 226.14,98.56
             226.14,100.58 226.65,102.49 227.55,104.15
             233.00,102.61 237.86,99.65 241.71,95.70
             244.55,92.82 247.00,89.57 249.00,86.02
             247.46,85.76 245.85,85.62 244.22,85.62
             244.20,85.62 244.19,85.62 244.18,85.62
             244.18,85.62 244.18,85.62 244.18,85.62 Z
           M 219.08,119.85
           C 219.71,124.77 220.17,134.42 220.17,134.42
             218.86,147.10 218.56,155.88 218.56,155.88
             237.77,165.23 265.23,159.62 268.65,155.35
             266.42,143.06 263.03,136.35 260.23,129.46
             260.23,129.46 263.36,107.46 263.36,107.46
             263.36,107.46 255.00,101.00 255.21,87.27
             255.21,87.27 248.58,85.50 244.21,85.62
             232.45,67.33 246.63,67.33 246.63,67.33
             243.00,71.13 239.83,75.38 237.22,79.98
             213.00,106.76 213.18,114.12 219.08,119.85 Z
           M 219.08,119.85
           C 219.71,124.77 220.17,134.42 220.17,134.42
             218.86,147.10 218.56,155.88 218.56,155.88
             237.77,165.23 265.23,159.62 268.65,155.35
             266.42,143.06 263.03,136.35 260.23,129.46
             260.23,129.46 263.36,107.46 263.36,107.46
             263.36,107.46 255.00,101.00 255.21,87.27
             255.21,87.27 248.58,85.50 244.21,85.62
             232.45,67.33 246.63,67.33 246.63,67.33
             243.00,71.13 239.83,75.38 237.22,79.98
             213.00,106.76 213.18,114.12 219.08,119.85 Z
           M 225.89,88.00
           C 219.89,87.19 217.81,90.45 215.65,95.31
             213.49,100.17 215.08,124.65 215.08,124.65
             215.08,124.65 233.64,124.65 233.64,124.65
             233.64,124.65 225.89,88.00 225.89,88.00 Z
           M 225.89,88.00
           C 219.89,87.19 217.81,90.45 215.65,95.31
             213.49,100.17 215.08,124.65 215.08,124.65
             215.08,124.65 233.64,124.65 233.64,124.65
             233.64,124.65 225.89,88.00 225.89,88.00 Z
           M 231.06,114.38
           C 231.06,114.38 215.64,116.77 215.64,116.77
             215.64,116.77 215.64,130.45 215.64,130.45
             212.45,133.67 204.50,141.82 198.83,148.81
             198.83,148.81 209.37,154.42 209.37,154.42
             211.58,151.76 217.77,146.86 223.54,142.70
             229.54,138.40 231.06,135.11 231.06,135.11
             231.91,133.59 231.06,114.38 231.06,114.38 Z
           M 241.89,182.00
           C 241.89,182.00 239.89,166.87 239.89,166.87
             239.89,166.87 229.74,165.51 225.14,161.19
             227.75,165.27 232.09,168.13 237.13,168.75
             237.13,168.75 239.24,182.75 239.24,182.75
             239.24,182.75 238.77,204.12 238.77,204.12
             238.77,204.12 241.89,182.00 241.89,182.00 Z
           M 262.21,136.20
           C 264.93,142.40 266.75,149.11 267.53,156.14
             269.46,181.20 268.75,213.44 268.75,213.66
             271.37,215.54 277.31,216.66 288.82,214.98
             302.42,213.69 338.93,213.69 338.93,213.69
             338.93,213.69 330.79,218.54 324.46,213.02
             324.46,213.02 318.06,159.25 316.35,145.72
             314.86,133.92 310.35,112.10 310.35,112.10
             310.35,112.10 306.56,138.73 306.56,138.73
             306.56,138.73 306.26,156.73 305.95,163.63
             305.58,171.63 303.73,195.47 303.73,195.47
             303.73,195.47 292.55,199.26 287.56,193.89
             287.56,193.89 286.73,146.89 286.56,137.25
             286.23,118.40 285.48,95.25 288.56,75.44
             288.56,75.44 262.21,136.20 262.21,136.20 Z
           M 262.21,136.20
           C 264.93,142.40 266.75,149.11 267.53,156.14
             269.46,181.20 268.75,213.44 268.75,213.66
             271.37,215.54 277.31,216.66 288.82,214.98
             302.42,213.69 338.93,213.69 338.93,213.69
             338.93,213.69 330.79,218.54 324.46,213.02
             324.46,213.02 318.06,159.25 316.35,145.72
             314.86,133.92 310.35,112.10 310.35,112.10
             310.35,112.10 306.56,138.73 306.56,138.73
             306.56,138.73 306.26,156.73 305.95,163.63
             305.58,171.63 303.73,195.47 303.73,195.47
             303.73,195.47 292.55,199.26 287.56,193.89
             287.56,193.89 286.73,146.89 286.56,137.25
             286.23,118.40 285.48,95.25 288.56,75.44
             288.56,75.44 262.21,136.20 262.21,136.20 Z
           M 267.73,281.83
           C 267.73,281.83 266.76,281.83 266.76,281.83
             266.76,281.83 266.76,281.83 266.76,281.83
             262.28,279.62 257.45,281.73 257.24,281.83
             257.24,281.83 345.83,281.83 345.83,281.83
             345.88,281.83 350.54,279.77 354.70,281.83
             354.70,281.83 345.83,281.83 345.83,281.83
             345.83,281.83 267.73,281.83 267.73,281.83 Z
           M 267.65,285.70
           C 267.65,285.70 266.70,285.70 266.70,285.70
             266.70,285.70 278.30,285.70 278.30,285.70
             278.30,285.70 278.30,285.70 278.30,285.70
             278.30,285.70 289.40,296.80 289.40,296.80
             289.40,296.80 289.40,296.80 289.40,296.80
             289.40,296.80 349.70,296.80 349.70,296.80
             349.70,296.80 267.65,285.70 267.65,285.70 Z
           M 267.57,289.15
           C 267.57,289.15 266.57,289.15 266.57,289.15
             266.57,289.15 266.57,289.15 266.57,289.15
             262.21,287.15 257.51,289.02 257.32,289.10
             257.32,289.10 257.32,289.10 257.32,289.10
             257.32,289.10 257.32,289.10 257.32,289.10
             257.32,289.10 261.92,287.30 266.03,287.30
             266.03,287.30 353.15,289.10 353.15,289.10
             353.15,289.10 267.57,289.15 267.57,289.15 Z
           M 258.54,292.85
           C 258.54,292.85 258.66,292.85 258.66,292.85
             260.04,292.41 261.52,292.18 263.05,292.18
             264.58,292.18 266.05,292.41 267.44,292.85
             267.44,292.85 266.44,292.85 266.44,292.85
             266.44,292.85 281.82,292.85 281.82,292.85
             281.82,292.85 281.82,292.85 281.82,292.85
             281.82,292.85 281.82,292.85 281.82,292.85
             281.82,292.85 356.85,292.85 356.85,292.85
             356.85,292.85 258.54,292.85 258.54,292.85 Z
           M 259.00,296.76
           C 259.00,296.76 259.00,308.76 259.00,308.76
             259.00,308.76 259.00,309.50 259.00,309.50
             259.00,309.50 259.00,309.50 259.00,309.50
             259.00,309.50 259.00,309.50 259.00,309.50
             259.00,309.50 259.00,309.50 259.00,309.50
             259.00,309.50 360.76,309.50 360.76,309.50
             360.76,309.50 259.00,296.76 259.00,296.76 Z
           M 259.66,296.63
           C 259.44,294.62 259.32,292.54 259.32,290.42
             259.32,290.40 259.32,290.38 259.32,290.36
             259.32,287.07 259.11,280.16 258.78,276.55
             258.68,276.02 258.62,275.46 258.62,274.89
             258.62,274.78 258.63,274.66 258.63,274.55
             258.63,274.05 258.63,273.42 258.63,272.90
             258.63,272.90 258.63,272.83 258.63,272.79
             257.73,271.89 260.81,271.79 263.26,272.79
             264.68,272.79 266.59,278.56 267.53,272.45
             277.87,272.45 280.35,272.45 280.35,272.45
             280.35,272.45 259.81,298.39 259.66,296.63 Z
           M 266.71,296.63
           C 266.55,298.39 268.35,297.97 268.71,295.49
             269.07,293.01 268.26,286.98 268.71,282.71
             268.61,277.71 258.93,281.80 258.71,282.71
             258.77,282.71 258.83,282.71 258.89,282.71
             258.89,282.71 258.78,285.19 258.78,285.19
             258.78,285.55 258.78,285.87 258.78,286.25
             258.44,289.84 258.25,296.83 258.23,300.15
             260.90,298.76 263.73,297.58 266.66,296.63
             266.66,296.63 266.71,296.63 266.71,296.63 Z
           M 270.15,293.18
           C 270.15,294.05 275.57,291.99 276.29,291.99
             277.01,291.99 274.44,288.99 274.44,288.99
             274.44,288.99 271.32,287.69 266.44,288.72
             265.50,287.91 269.64,286.72 268.98,286.72
             268.32,286.72 267.79,280.72 267.79,280.62
             267.13,285.26 266.92,288.97 268.94,292.54
             271.49,297.06 277.82,294.78 279.82,292.01
             281.82,289.24 282.30,287.08 282.15,282.15
             270.23,294.10 270.19,293.63 270.15,293.18 Z
           M 270.15,293.18
           C 270.15,294.05 275.57,291.99 276.29,291.99
             277.01,291.99 274.44,288.99 274.44,288.99
             274.44,288.99 271.32,287.69 266.44,288.72
             265.50,287.91 269.64,286.72 268.98,286.72
             268.32,286.72 267.79,280.72 267.79,280.62
             267.13,285.26 266.92,288.97 268.94,292.54
             271.49,297.06 277.82,294.78 279.82,292.01
             281.82,289.24 282.30,287.08 282.15,282.15
             270.23,294.10 270.19,293.63 270.15,293.18 Z
           M 267.77,272.74
           C 268.77,273.74 273.74,282.74 267.87,278.00
             269.30,285.56 269.43,290.03 272.80,277.67
             279.88,275.34 282.66,275.34 282.66,275.34
             282.66,275.34 274.33,280.39 271.25,280.39
             269.17,276.71 269.45,272.89 270.16,267.32
             265.16,268.61 261.64,268.79 257.64,263.38
             250.41,264.57 250.09,263.38 258.19,263.38
             259.42,263.38 259.96,263.38 259.96,263.38
             259.96,263.38 259.87,266.25 262.42,266.25
             262.51,265.81 262.55,265.35 262.56,264.88
             262.56,264.86 262.56,264.84 262.56,264.82
             262.56,264.40 262.71,264.02 262.96,263.73
             263.28,263.49 263.67,263.35 264.10,263.35
             264.11,263.35 264.12,263.35 264.13,263.35
             265.10,263.24 266.10,263.19 267.12,263.19
             267.12,263.19 267.13,263.19 267.13,263.19
             266.62,263.19 268.13,263.19 268.73,263.19
             269.25,262.95 269.83,262.82 270.44,262.82
             271.05,262.82 271.63,262.95 272.15,263.19
             272.15,263.19 272.15,263.19 272.15,263.19
             272.15,263.19 272.15,263.19 272.15,263.19
             272.15,263.19 272.15,263.19 272.15,263.19
             272.15,264.33 1.00,264.33 1.00,264.33
             1.00,264.33 1.18,263.97 0.72,263.97
             0.66,263.38 0.72,262.97 0.65,262.26
             0.65,261.95 0.65,261.51 0.65,261.19
             0.65,260.87 267.76,273.06 267.77,272.74 Z
           M 267.77,272.74
           C 268.77,273.74 273.74,282.74 267.87,278.00
             269.30,285.56 269.43,290.03 272.80,277.67
             279.88,275.34 282.66,275.34 282.66,275.34
             282.66,275.34 274.33,280.39 271.25,280.39
             269.17,276.71 269.45,272.89 270.16,267.32
             265.16,268.61 261.64,268.79 257.64,263.38
             250.41,264.57 250.09,263.38 258.19,263.38
             259.42,263.38 259.96,263.38 259.96,263.38
             259.96,263.38 259.87,266.25 262.42,266.25
             262.51,265.81 262.55,265.35 262.56,264.88
             262.56,264.86 262.56,264.84 262.56,264.82
             262.56,264.40 262.71,264.02 262.96,263.73
             263.28,263.49 263.67,263.35 264.10,263.35
             264.11,263.35 264.12,263.35 264.13,263.35
             265.10,263.24 266.10,263.19 267.12,263.19
             267.12,263.19 267.13,263.19 267.13,263.19
             266.62,263.19 268.13,263.19 268.73,263.19
             269.25,262.95 269.83,262.82 270.44,262.82
             271.05,262.82 271.63,262.95 272.15,263.19
             272.15,263.19 272.15,263.19 272.15,263.19
             272.15,263.19 272.15,263.19 272.15,263.19
             272.15,263.19 272.15,263.19 272.15,263.19
             272.15,264.33 1.00,264.33 1.00,264.33
             1.00,264.33 1.18,263.97 0.72,263.97
             0.66,263.38 0.72,262.97 0.65,262.26
             0.65,261.95 0.65,261.51 0.65,261.19
             0.65,260.87 267.76,273.06 267.77,272.74 Z
           M 255.42,297.89
           C 255.27,301.68 261.49,299.12 263.74,299.12
             264.62,300.84 266.42,302.02 268.49,302.02
             268.89,302.02 269.28,301.98 269.66,301.89
             272.17,301.52 275.47,300.18 276.48,297.14
             277.14,295.19 277.49,293.09 277.49,290.90
             277.49,290.10 277.44,289.32 277.35,288.55
             277.35,288.55 255.42,297.89 255.42,297.89 Z
           M 225.08,270.18
           C 225.08,270.18 224.24,270.18 224.24,270.18
             224.24,270.18 224.24,270.18 224.24,270.18
             222.77,268.32 219.44,267.10 216.65,267.41
             216.65,267.41 331.41,270.18 331.41,270.18
             333.92,269.91 337.88,277.10 333.91,277.10
             333.91,277.10 334.18,270.18 334.18,270.18
             334.18,270.18 225.08,270.18 225.08,270.18 Z
           M 222.07,272.39
           C 222.07,272.39 221.22,272.39 221.22,272.39
             221.22,272.39 230.29,272.39 230.29,272.39
             230.29,272.39 230.29,272.39 230.29,272.39
             230.29,272.39 238.65,280.75 238.65,280.75
             238.65,280.75 238.65,280.75 238.65,280.75
             238.65,280.75 336.39,280.75 336.39,280.75
             336.39,280.75 222.07,272.39 222.07,272.39 Z
           M 219.00,274.59
           C 219.00,274.59 218.17,274.59 218.17,274.59
             218.17,274.59 227.17,274.59 227.17,274.59
             227.17,274.59 227.17,274.59 227.17,274.59
             227.17,274.59 235.55,282.97 235.55,282.97
             235.55,282.97 235.55,282.97 235.55,282.97
             235.55,282.97 338.59,282.97 338.59,282.97
             338.59,282.97 219.00,274.59 219.00,274.59 Z
           M 215.70,276.52
           C 215.70,276.52 214.85,276.52 214.85,276.52
             214.85,276.52 223.91,276.52 223.91,276.52
             223.91,276.52 223.91,276.52 223.91,276.52
             223.91,276.52 232.29,284.90 232.29,284.90
             232.29,284.90 232.29,284.90 232.29,284.90
             232.29,284.90 340.52,284.90 340.52,284.90
             340.52,284.90 215.70,276.52 215.70,276.52 Z
           M 212.39,278.55
           C 212.39,278.55 211.55,278.55 211.55,278.55
             211.55,278.55 220.55,278.55 220.55,278.55
             220.55,278.55 220.55,278.55 220.55,278.55
             220.55,278.55 228.93,286.93 228.93,286.93
             228.93,286.93 228.93,286.93 228.93,286.93
             228.93,286.93 342.55,286.93 342.55,286.93
             342.55,286.93 212.39,278.55 212.39,278.55 Z
           M 213.23,276.73
           C 209.44,278.25 211.05,278.96 212.12,279.11
             213.19,279.26 219.56,275.53 223.46,272.45
             227.52,269.24 230.08,265.72 231.59,263.98
             231.15,265.15 230.59,265.69 230.11,263.88
             229.27,263.70 228.51,263.62 228.11,263.62
             228.11,263.62 227.39,-64.00 227.39,-64.00
             227.39,-63.44 228.39,-64.30 228.71,-64.30
             228.36,-64.51 228.03,-64.73 227.71,-64.98
             227.34,-64.69 227.00,-64.35 226.71,-63.98
             226.22,-63.27 225.67,-62.60 225.07,-61.98
             225.00,269.50 217.00,275.22 213.23,276.73 Z
           M 220.41,281.61
           C 221.47,280.72 222.58,279.89 223.73,279.12
             223.73,279.12 223.74,279.12 223.74,279.12
             223.74,279.12 216.56,283.48 213.66,281.50
             211.80,280.22 212.66,278.67 212.73,278.18
             212.80,277.69 208.17,275.56 206.35,275.35
             206.35,275.35 206.35,275.35 206.35,275.35
             205.57,273.92 204.54,269.25 209.18,268.22
             213.38,262.40 215.74,269.28 211.09,272.64
             214.49,282.38 214.49,282.38 214.49,282.38
             212.55,285.93 217.90,283.67 220.41,281.61 Z
           M 220.41,281.61
           C 221.47,280.72 222.58,279.89 223.73,279.12
             223.73,279.12 223.74,279.12 223.74,279.12
             223.74,279.12 216.56,283.48 213.66,281.50
             211.80,280.22 212.66,278.67 212.73,278.18
             212.80,277.69 208.17,275.56 206.35,275.35
             206.35,275.35 206.35,275.35 206.35,275.35
             205.57,273.92 204.54,269.25 209.18,268.22
             213.38,262.40 215.74,269.28 211.09,272.64
             214.49,282.38 214.49,282.38 214.49,282.38
             212.55,285.93 217.90,283.67 220.41,281.61 Z
           M 232.23,260.34
           C 232.23,260.34 0.00,-64.00 0.00,-64.00
             1.35,-59.98 4.72,-59.98 4.72,-59.98
             5.11,-58.24 5.32,-56.41 5.32,-54.53
             5.32,-53.84 5.29,-53.17 5.24,-52.50
             4.95,-50.92 1.29,-49.82 -1.04,-48.93
             -3.81,-47.73 -6.36,-46.11 -8.61,-44.15
             -11.12,-42.09 -16.39,-39.93 -19.87,-39.96
             -23.99,-39.96 -28.62,-41.32 -29.68,-43.23
             -30.99,-45.59 -29.96,-46.96 -23.86,-49.79
             -22.71,-50.32 -18.65,-52.72 -17.27,-53.59
             -13.53,-55.95 -9.82,-59.23 -8.10,-63.39
             -7.96,-63.91 -7.65,-64.36 -7.22,-64.67
             25.28,-87.71 65.00,-101.25 107.89,-101.25
             218.02,-101.25 307.30,-11.97 307.30,98.17
             307.30,165.41 274.02,224.88 223.03,261.00
             223.63,260.88 224.27,260.82 224.93,260.82
             225.57,260.82 226.21,260.88 226.82,261.00
             228.03,263.00 227.67,263.00 228.71,263.00
             228.69,263.38 228.61,263.73 228.48,264.07
             228.20,262.75 0.00,262.75 0.00,262.75
             0.00,262.75 -0.41,262.75 0.57,262.59
             1.17,261.97 1.72,261.30 2.21,260.59
             2.50,260.22 2.84,259.88 3.21,259.59
             3.56,259.38 3.89,259.16 4.21,258.91
             232.30,261.29 232.22,260.83 232.23,260.34 Z
           M 232.23,260.34
           C 232.23,260.34 0.00,-64.00 0.00,-64.00
             1.35,-59.98 4.72,-59.98 4.72,-59.98
             5.11,-58.24 5.32,-56.41 5.32,-54.53
             5.32,-53.84 5.29,-53.17 5.24,-52.50
             4.95,-50.92 1.29,-49.82 -1.04,-48.93
             -3.81,-47.73 -6.36,-46.11 -8.61,-44.15
             -11.12,-42.09 -16.39,-39.93 -19.87,-39.96
             -23.99,-39.96 -28.62,-41.32 -29.68,-43.23
             -30.99,-45.59 -29.96,-46.96 -23.86,-49.79
             -22.71,-50.32 -18.65,-52.72 -17.27,-53.59
             -13.53,-55.95 -9.82,-59.23 -8.10,-63.39
             -7.96,-63.91 -7.65,-64.36 -7.22,-64.67
             25.28,-87.71 65.00,-101.25 107.89,-101.25
             218.02,-101.25 307.30,-11.97 307.30,98.17
             307.30,165.41 274.02,224.88 223.03,261.00
             223.63,260.88 224.27,260.82 224.93,260.82
             225.57,260.82 226.21,260.88 226.82,261.00
             228.03,263.00 227.67,263.00 228.71,263.00
             228.69,263.38 228.61,263.73 228.48,264.07
             228.20,262.75 0.00,262.75 0.00,262.75
             0.00,262.75 -0.41,262.75 0.57,262.59
             1.17,261.97 1.72,261.30 2.21,260.59
             2.50,260.22 2.84,259.88 3.21,259.59
             3.56,259.38 3.89,259.16 4.21,258.91
             232.30,261.29 232.22,260.83 232.23,260.34 Z
           M 199.06,281.26
           C 198.92,281.63 198.85,282.03 198.85,282.44
             198.85,283.31 199.17,284.10 199.70,284.70
             201.07,285.89 205.11,287.84 210.45,287.15
             215.79,286.46 218.67,284.81 220.81,283.02
             222.95,281.23 225.94,278.71 228.35,278.18
             230.32,277.81 232.14,277.05 233.74,275.97
             233.02,274.66 229.35,272.20 229.35,272.20
             229.35,272.20 199.06,281.26 199.06,281.26 Z
           M 326.45,42.06
           C 326.45,39.70 323.60,44.87 322.52,44.87
             324.56,43.83 326.87,43.24 329.32,43.24
             331.77,43.24 334.08,43.83 336.12,44.87
             338.00,45.95 338.94,47.38 338.94,48.80
             338.94,48.80 338.94,48.80 338.94,48.80
             338.94,48.80 338.94,51.17 338.94,51.17
             338.94,51.17 338.94,51.17 338.94,51.17
             338.94,52.59 338.00,54.01 336.12,55.09
             334.08,56.13 331.77,56.72 329.32,56.72
             326.87,56.72 324.56,56.13 322.52,55.09
             320.65,54.01 319.71,52.59 319.71,51.17
             319.71,51.17 319.71,51.17 319.71,51.17
             319.71,51.17 319.71,48.80 319.71,48.80
             319.71,48.80 326.45,42.06 326.45,42.06 Z" />
</svg>
