<svg xmlns="http://www.w3.org/2000/svg" xmlns:xlink="http://www.w3.org/1999/xlink" viewBox="0 0 500 500"><defs><clipPath id="freepik--clip-path--inject-20"><path d="M326.45,106.06c0-1.42.94-2.85,2.81-3.93a15,15,0,0,1,13.6,0c1.88,1.08,2.82,2.51,2.82,3.93h0v2.37h0c0,1.42-.94,2.84-2.82,3.92a15,15,0,0,1-13.6,0c-1.87-1.08-2.81-2.5-2.81-3.92h0v-2.37Z" style="fill:none"></path></clipPath></defs><g id="freepik--Characters--inject-20"><g id="freepik--characters--inject-20"><g id="freepik--Character--inject-20"><path d="M199.06,345.26a3.41,3.41,0,0,0,.64,3.44c1.37,1.19,5.41,3.14,10.75,2.45s8.22-2.34,10.36-4.13,5.13-4.31,7.54-4.84a14.49,14.49,0,0,0,5.39-2.21c.72-.69.62-3.77.62-3.77Z" style="fill:#455a64"></path><path d="M232.23,324.34a.86.86,0,0,1,.81.72c.16.85.34,3.32.7,4.72a25,25,0,0,1,.52,7.48c-.29,1.58-3.95,2.68-6.28,3.57a29.6,29.6,0,0,0-7.57,4.78c-2.51,2.06-7.78,4.22-11.26,4.19-4.12,0-8.75-1.36-9.81-3.27-1.31-2.36-.28-3.73,5.82-6.56,1.15-.53,5.21-2.93,6.59-3.8,3.74-2.36,7.45-5.64,9.17-9.8a2.31,2.31,0,0,1,.88-1.28A1.89,1.89,0,0,1,223,325a10.08,10.08,0,0,1,2.94.88c.82.39,2,.85,2,1.89a3.59,3.59,0,0,1-.23,1.07c-.07.21-.13.5.06.63s.41,0,.57-.16a15.53,15.53,0,0,0,1.64-2,6,6,0,0,1,1-1,11,11,0,0,0,1-.68C232.3,325.29,232.22,324.83,232.23,324.34Z" style="fill:#BA1267"></path><path d="M232.23,324.34a.86.86,0,0,1,.81.72c.16.85.34,3.32.7,4.72a25,25,0,0,1,.52,7.48c-.29,1.58-3.95,2.68-6.28,3.57a29.6,29.6,0,0,0-7.57,4.78c-2.51,2.06-7.78,4.22-11.26,4.19-4.12,0-8.75-1.36-9.81-3.27-1.31-2.36-.28-3.73,5.82-6.56,1.15-.53,5.21-2.93,6.59-3.8,3.74-2.36,7.45-5.64,9.17-9.8a2.31,2.31,0,0,1,.88-1.28A1.89,1.89,0,0,1,223,325a10.08,10.08,0,0,1,2.94.88c.82.39,2,.85,2,1.89a3.59,3.59,0,0,1-.23,1.07c-.07.21-.13.5.06.63s.41,0,.57-.16a15.53,15.53,0,0,0,1.64-2,6,6,0,0,1,1-1,11,11,0,0,0,1-.68C232.3,325.29,232.22,324.83,232.23,324.34Z" style="fill:#fff;opacity:0.9"></path><path d="M220.41,345.61a40,40,0,0,1,3.33-2.49h0s-7.18,4.36-10.08,2.38c-1.86-1.28-1-2.83-.93-3.32s-4.56-2.62-6.38-2.83h0c-.5.28-.93.5-1.19.62-6.1,2.83-7.13,4.2-5.82,6.56,1.06,1.91,4.42,3.4,9.74,3.4C212.55,349.93,217.9,347.67,220.41,345.61Z" style="fill:#BA1267;opacity:0.8"></path><path d="M220.41,345.61a40,40,0,0,1,3.33-2.49h0s-7.18,4.36-10.08,2.38c-1.86-1.28-1-2.83-.93-3.32s-4.56-2.62-6.38-2.83h0c-.5.28-.93.5-1.19.62-6.1,2.83-7.13,4.2-5.82,6.56,1.06,1.91,4.42,3.4,9.74,3.4C212.55,349.93,217.9,347.67,220.41,345.61Z" style="fill:#fff;opacity:0.8"></path><path d="M213.23,340.73c-3.79,1.52-2.18,2.23-1.11,2.38s7.44-3.58,11.34-6.66c4.06-3.21,6.62-6.73,8.13-7.91.56-.44,1.17-1,1.71-1.48-.1-.84-.18-1.6-.26-2a.86.86,0,0,0-.81-.72c0,.49.07,1-.3,1.32a11,11,0,0,1-1,.68,5.62,5.62,0,0,0-1,1,15.53,15.53,0,0,1-1.64,2C225,333.5,217,339.22,213.23,340.73Z" style="fill:#BA1267"></path><path d="M212.39,342.55a.34.34,0,0,0,.23-.08.38.38,0,0,0,.06-.53,9,9,0,0,0-7-2.74.38.38,0,0,0-.34.41.38.38,0,0,0,.42.34,8.38,8.38,0,0,1,6.29,2.47A.36.36,0,0,0,212.39,342.55Z" style="fill:#fafafa"></path><path d="M215.7,340.52a.35.35,0,0,0,.23-.09.38.38,0,0,0,.06-.53,9.06,9.06,0,0,0-7-2.74.39.39,0,0,0-.34.42.38.38,0,0,0,.42.33,8.38,8.38,0,0,1,6.29,2.47A.37.37,0,0,0,215.7,340.52Z" style="fill:#fafafa"></path><path d="M219,338.59a.35.35,0,0,0,.23-.09.37.37,0,0,0,.06-.52,9,9,0,0,0-7-2.74.37.37,0,0,0-.34.41.38.38,0,0,0,.42.33,8.38,8.38,0,0,1,6.29,2.47A.37.37,0,0,0,219,338.59Z" style="fill:#fafafa"></path><path d="M222.07,336.39a.36.36,0,0,0,.24-.09.38.38,0,0,0,.05-.53,9.07,9.07,0,0,0-7-2.74.38.38,0,0,0-.33.42.37.37,0,0,0,.41.33,8.36,8.36,0,0,1,6.29,2.47A.38.38,0,0,0,222.07,336.39Z" style="fill:#fafafa"></path><path d="M225.08,334.18a.34.34,0,0,0,.23-.08.38.38,0,0,0,.06-.53c-1.47-1.86-4.8-3.08-7.59-2.77a.37.37,0,0,0,.08.74c2.51-.27,5.62.85,6.92,2.5A.41.41,0,0,0,225.08,334.18Z" style="fill:#fafafa"></path><path d="M255.42,361.89c-.15,3.62.17,6.07,1.23,8.32a5.34,5.34,0,0,0,5.92,2.77c2.51-.37,5.81-1.71,6.82-4.75a19.8,19.8,0,0,0,.87-8.59Z" style="fill:#455a64"></path><path d="M267.77,336.74c1,.19.81,5.06.91,10,.1,5.26,1.43,7.56,1.56,11.88.15,4.93-.33,7.08-2.33,9.86s-8.33,5.05-10.88.53c-2.08-3.68-1.8-7.5-1.09-12.34.73-5,1.29-8.52,1.47-12.35.17-3.67.27-7.23,1.19-7.55,0,.55,0,1.23,0,1.77s-.09,2.39.48,2.46a7.76,7.76,0,0,0,.14-1.37,1.68,1.68,0,0,1,.4-1.15,1.89,1.89,0,0,1,1.17-.38,28,28,0,0,1,3-.16c.51,0,1,0,1.52.08a4.17,4.17,0,0,1,1.25.31.93.93,0,0,1,.5.55,1.51,1.51,0,0,1,0,.56,3.87,3.87,0,0,0,0,1c0,.14.11.33.25.31s.18-.16.2-.28c.06-.59,0-1,.07-1.71,0-.31,0-.75,0-1.07S267.76,337.06,267.77,336.74Z" style="fill:#BA1267"></path><path d="M267.77,336.74c1,.19.81,5.06.91,10,.1,5.26,1.43,7.56,1.56,11.88.15,4.93-.33,7.08-2.33,9.86s-8.33,5.05-10.88.53c-2.08-3.68-1.8-7.5-1.09-12.34.73-5,1.29-8.52,1.47-12.35.17-3.67.27-7.23,1.19-7.55,0,.55,0,1.23,0,1.77s-.09,2.39.48,2.46a7.76,7.76,0,0,0,.14-1.37,1.68,1.68,0,0,1,.4-1.15,1.89,1.89,0,0,1,1.17-.38,28,28,0,0,1,3-.16c.51,0,1,0,1.52.08a4.17,4.17,0,0,1,1.25.31.93.93,0,0,1,.5.55,1.51,1.51,0,0,1,0,.56,3.87,3.87,0,0,0,0,1c0,.14.11.33.25.31s.18-.16.2-.28c.06-.59,0-1,.07-1.71,0-.31,0-.75,0-1.07S267.76,337.06,267.77,336.74Z" style="fill:#fff;opacity:0.9"></path><path d="M270.15,357.18c0,.71.16,5.42-1.19,6.14s-1.85-3-1.85-3-3.12-1.3-8,.27c.16.78-.81,3.2-2,2.54s-1.19-6-1.19-6.1c-.66,4.64-.87,8.35,1.15,11.92,2.55,4.52,8.88,2.24,10.88-.53s2.48-4.93,2.33-9.86C270.23,358.1,270.19,357.63,270.15,357.18Z" style="fill:#BA1267"></path><path d="M270.15,357.18c0,.71.16,5.42-1.19,6.14s-1.85-3-1.85-3-3.12-1.3-8,.27c.16.78-.81,3.2-2,2.54s-1.19-6-1.19-6.1c-.66,4.64-.87,8.35,1.15,11.92,2.55,4.52,8.88,2.24,10.88-.53s2.48-4.93,2.33-9.86C270.23,358.1,270.19,357.63,270.15,357.18Z" style="fill:#fff;opacity:0.8"></path><path d="M266.71,360.63c-.16,1.76,1.64,1.34,2-1.14s-.45-8.51,0-12.78c-.1-4.91.09-9.78-.91-10,0,.06,0,.12,0,.18l-.11,2.48c0,.36,0,.68,0,1.06-.34,3.59-.53,10.58-.55,13.9A56.8,56.8,0,0,1,266.71,360.63Z" style="fill:#BA1267"></path><path d="M259.66,360.63a56.8,56.8,0,0,1-.34-6.27c0-3.29-.21-10.2-.54-13.81a8.9,8.9,0,0,1-.15-2c0-.5,0-1.13,0-1.65,0,0,0-.07,0-.11-.66.24-.9,2.18-1,4.63,0,1.42,0,3.19.14,5.33.44,4.27-.34,10.34,0,12.82S259.81,362.39,259.66,360.63Z" style="fill:#BA1267"></path><path d="M259,360.76a.32.32,0,0,0,.14,0,12,12,0,0,1,7.85,0,.37.37,0,0,0,.48-.21.39.39,0,0,0-.22-.49,12.5,12.5,0,0,0-8.39,0,.37.37,0,0,0-.2.49A.36.36,0,0,0,259,360.76Z" style="fill:#fafafa"></path><path d="M258.54,356.85l.12,0a14.73,14.73,0,0,1,8.78,0,.38.38,0,0,0,.48-.24.38.38,0,0,0-.23-.48,15.38,15.38,0,0,0-9.28,0,.38.38,0,0,0-.23.48A.39.39,0,0,0,258.54,356.85Z" style="fill:#fafafa"></path><path d="M267.57,353.15a.38.38,0,0,0,.34-.22.39.39,0,0,0-.19-.5c-4.36-2-9.06-.13-9.25-.05a.36.36,0,0,0-.21.49.37.37,0,0,0,.49.2s4.6-1.8,8.66.05A.41.41,0,0,0,267.57,353.15Z" style="fill:#fafafa"></path><path d="M267.65,349.7a.39.39,0,0,0,.34-.21.37.37,0,0,0-.18-.5,11.6,11.6,0,0,0-9.43-.1.37.37,0,0,0-.18.5.38.38,0,0,0,.5.17,11.1,11.1,0,0,1,8.79.11A.45.45,0,0,0,267.65,349.7Z" style="fill:#fafafa"></path><path d="M267.73,345.83a.39.39,0,0,0,.34-.21.38.38,0,0,0-.17-.5c-4.48-2.21-9.31-.1-9.52,0a.38.38,0,0,0,.31.69c.05,0,4.71-2.06,8.87,0A.35.35,0,0,0,267.73,345.83Z" style="fill:#ebebeb"></path><path d="M262.21,200.2a69.43,69.43,0,0,1,5.32,20c1.93,25,1.22,57.24,1.22,57.24.22,2.62,1.88,8.56,3,20.07,1.32,13.6-1.29,50.11-1.29,50.11s-8.14,4.85-14.47-.67c0,0-6.4-53.77-8.11-67.3-1.49-11.8-6-33.62-6-33.62l-3.79,26.63s-.3,18-.61,24.9c-.37,8-2.22,31.84-2.22,31.84s-11.18,3.79-16.17-1.58c0,0-.83-47-1-56.64-.33-18.85-1.08-42,2-61.81Z" style="fill:#BA1267"></path><path d="M262.21,200.2a69.43,69.43,0,0,1,5.32,20c1.93,25,1.22,57.24,1.22,57.24.22,2.62,1.88,8.56,3,20.07,1.32,13.6-1.29,50.11-1.29,50.11s-8.14,4.85-14.47-.67c0,0-6.4-53.77-8.11-67.3-1.49-11.8-6-33.62-6-33.62l-3.79,26.63s-.3,18-.61,24.9c-.37,8-2.22,31.84-2.22,31.84s-11.18,3.79-16.17-1.58c0,0-.83-47-1-56.64-.33-18.85-1.08-42,2-61.81Z" style="opacity:0.2"></path><path d="M241.89,246l-2-15.13s-10.15-1.36-14.75-5.68a16.68,16.68,0,0,0,12,7.56l2.1,14-.47,21.37Z" style="opacity:0.2"></path><path d="M231.06,178.38l-15.42,2.39v13.68c-3.19,3.22-11.14,11.37-16.81,18.36l10.54,5.61c2.21-2.66,8.4-7.56,14.17-11.72,6-4.3,7.52-7.59,7.52-7.59C231.91,197.59,231.06,178.38,231.06,178.38Z" style="fill:#ffc4c3"></path><path d="M225.89,152c-6,.81-8.08,2.45-10.24,7.31s-.57,29.34-.57,29.34h18.56Z" style="fill:#BA1267"></path><path d="M225.89,152c-6,.81-8.08,2.45-10.24,7.31s-.57,29.34-.57,29.34h18.56Z" style="opacity:0.1"></path><path d="M219.08,183.85c.63,4.92,1.09,14.57,1.09,14.57-1.31,12.68-1.61,21.46-1.61,21.46,19.21,9.35,46.67,3.74,50.09-.53-2.23-12.29-5.62-19-8.42-25.89l3.13-22S255,165,255.21,151.27c0,0-6.63-1.77-11-1.65-11.45.31-18.29,2.42-18.29,2.42a64.24,64.24,0,0,0-9.41,12.67C213,170.76,213.18,178.12,219.08,183.85Z" style="fill:#BA1267"></path><g style="opacity:0.30000000000000004"><path d="M219.08,183.85c.63,4.92,1.09,14.57,1.09,14.57-1.31,12.68-1.61,21.46-1.61,21.46,19.21,9.35,46.67,3.74,50.09-.53-2.23-12.29-5.62-19-8.42-25.89l3.13-22S255,165,255.21,151.27c0,0-6.63-1.77-11-1.65-11.45.31-18.29,2.42-18.29,2.42a64.24,64.24,0,0,0-9.41,12.67C213,170.76,213.18,178.12,219.08,183.85Z" style="fill:#fff"></path></g><path d="M244.18,149.62a88.44,88.44,0,0,0-14.74,1.57,58.58,58.58,0,0,0-3,8.8,11.8,11.8,0,0,0,1.11,8.16,32,32,0,0,0,14.16-8.45A45.63,45.63,0,0,0,249,150,29.06,29.06,0,0,0,244.18,149.62Z" style="opacity:0.1"></path><polygon points="237.31 175.96 249.87 176 249.96 178.42 237.21 178.35 237.31 175.96" style="opacity:0.2"></polygon><path d="M247.08,107a10.25,10.25,0,0,1,7.28,1.13,8.66,8.66,0,0,1,3.84,3.66c2,4.13,2.57,7.76,3,13.33a50.44,50.44,0,0,0,1.88,9.69,42.93,42.93,0,0,0,1.7,5.41c.28.66,1.12,1.65,1,2.39-.28,1.56-3.94-1-4.29-1.7.07,3.54.44,7.16,2.68,10,.27.36.69.76.66,1.25-.09,1.35-2.73,1.21-3.61,1.14a13,13,0,0,1-6.33-2c-2.7-1.84-3.94-5-4.69-8.08a41.2,41.2,0,0,1-.94-5.53,67.56,67.56,0,0,1-.25-7.26,33.16,33.16,0,0,0-.57-7.71c-.58-2.44-2.93-3.88-4-6.12a13.4,13.4,0,0,1-1.51-7.32A7.82,7.82,0,0,1,247.08,107Z" style="fill:#f0997a"></path><path d="M248.8,114.78c.56-1.6.33-4-2.09-6a4.72,4.72,0,0,0-4.81-.92Z" style="fill:#BA1267"></path><path d="M245,143.72c-.16-1.88,2.18-6,4.05-10.67,2.6-6.48,3.1-15.65-2.55-21.77s-18.19-9.38-27.44-.77c-8.05,3.63-9,14.61-3.34,17.17Z" style="fill:#f0997a"></path><path d="M220,115.14c-2.38,1.52-5.61,4.6-3.82,17.29,1.39,9.93,5.48,14.16,7.28,14.87s3.91.7,7.2,0l.56,5.67s-5.68,8.49-2.85,13.44a41.66,41.66,0,0,0,11.3-6.86c6.21-5.59,6.37-7.29,6.82-9l-1.4-12.78s1.78,1.53,5-1.48c2.65-2.49,3.42-6.55,1.21-8.63a4.54,4.54,0,0,0-4.35-1,5.59,5.59,0,0,0-3.52,3.45,1.08,1.08,0,0,1-.67.72.8.8,0,0,1-.7-.23,2.31,2.31,0,0,1-.41-.65,13.45,13.45,0,0,1-1-4.28C237.32,126.54,221.65,123.82,220,115.14Z" style="fill:#ffc4c3"></path><path d="M212.67,127.49a2.37,2.37,0,0,0,.81,1.22,1.13,1.13,0,0,1,.32.43,20.76,20.76,0,0,0,1.32,3.39,4.43,4.43,0,0,0,4.56,2,6.88,6.88,0,0,0,1.44-.26l.11,0a4.64,4.64,0,0,0,1.14-.54l.06,0,.1-.07.12-.09.1-.09.12-.11.11-.11a2.29,2.29,0,0,0,.21-.23,5,5,0,0,0,.8-1.43c.47-1.29.12-3,1.11-3.29l.12,0,.13,0c1.38-.13,1.44,1.75,2.37,3s2.34,2.39,5.34,2.1l.39-.05.3-.05a4.62,4.62,0,0,0,.71-.17l.22-.07.21-.08.14,0a4.68,4.68,0,0,0,.77-.43l.25-.19a3.35,3.35,0,0,0,.43-.41,4.1,4.1,0,0,0,.76-1.33,19.58,19.58,0,0,0,.42-3.55,1.36,1.36,0,0,1,.18-.53l.25-.4,7.2,1.54a4.89,4.89,0,0,1,.63-.42,11,11,0,0,1,1.55-.54L237.41,124h-.74a25.76,25.76,0,0,0-7.28.88c-2.24.82-3,1.55-4.26,1.68s-2.06-.48-4.32-.86a22.46,22.46,0,0,0-6.86.45l-.67.14A1,1,0,0,0,212.67,127.49Zm15.34-.41a1.93,1.93,0,0,1,.6-.55l.11-.07.07,0,.31-.17.28-.14a8.34,8.34,0,0,1,1-.38l.38-.13c.33-.1.66-.18,1-.25l.24,0a6.58,6.58,0,0,1,4.19.24c.57.36.54,2.19.43,3.13v.14c0,.12,0,.25,0,.38s0,.16-.05.24h0a3.45,3.45,0,0,1-.11.4h0c0,.05,0,.09,0,.14l0,.08a1,1,0,0,0,0,.1,1.17,1.17,0,0,0-.05.11l-.06.13c0,.05,0,.09-.07.14l-.09.14a3.66,3.66,0,0,1-3,1.63,4.64,4.64,0,0,1-3.41-.73h0a3.91,3.91,0,0,1-1.28-1.73C227.93,128.86,227.64,127.68,228,127.08Zm-13.19.49a2.11,2.11,0,0,1,.51-.36l0,0,.23-.11.15-.06.11,0,.08,0h0l.12,0,.51-.13.27,0,.17,0,.12,0,.36,0,.13,0h.12c.32,0,.67,0,1,0,1.6,0,3.33.49,3.83,1a4,4,0,0,1,.45,2.76,5.54,5.54,0,0,1-.12.71.08.08,0,0,0,0,.05s0,0,0,.08a.06.06,0,0,0,0,0l0,.09-.07.18a1,1,0,0,1-.07.15s0,0,0,.06l-.06.1a.41.41,0,0,1,0,.09h0a3.67,3.67,0,0,1-3.15,1.7,4.51,4.51,0,0,1-1.71-.17,4.16,4.16,0,0,1-2.5-2.74C214.91,129.8,214.4,128,214.82,127.57Z" style="fill:#37474f"></path><path d="M229.84,128.92a1.48,1.48,0,0,0,1.45,1.46,1.39,1.39,0,0,0,1.44-1.38,1.49,1.49,0,0,0-1.45-1.47A1.39,1.39,0,0,0,229.84,128.92Z"></path><path d="M231.37,138.33l-3.17,1.59a1.74,1.74,0,0,0,2.36.85A1.85,1.85,0,0,0,231.37,138.33Z" style="fill:#f28f8f"></path><path d="M217.53,124.92l3.07-1.08a1.56,1.56,0,0,0-2-1A1.71,1.71,0,0,0,217.53,124.92Z"></path><path d="M231.88,122.59l3.07,1.09a1.56,1.56,0,0,0-.93-2.07A1.72,1.72,0,0,0,231.88,122.59Z"></path><path d="M218.17,130a1.48,1.48,0,0,0,1.44,1.46,1.39,1.39,0,0,0,1.45-1.39,1.48,1.48,0,0,0-1.45-1.46A1.39,1.39,0,0,0,218.17,130Z"></path><path d="M225.82,128.23l.57,8.32-4.83-.46,3.46-7.83A1.22,1.22,0,0,1,225.82,128.23Z" style="fill:#ffa8a7"></path><path d="M230.64,147.33c3.46-.86,9-2.7,11.19-7.41a9.64,9.64,0,0,1-2.52,5.08c-2.08,1.92-8.47,4.34-8.47,4.34Z" style="fill:#ffa8a7"></path><path d="M279.76,195.84c-.78-4.85-6.61-28.6-9.16-34.54-3.7-8.62-7.85-10.31-15.39-10-6.1,5.72.15,22,1.48,25.92l7.73,23c-1.81,3.1-12.92,26.44-17.55,31.14L259,234.69c2.88-3.4,15-19.53,18-23.37C281.75,205.38,281.12,204.19,279.76,195.84Z" style="fill:#ffc4c3"></path><path d="M253.27,151.14c5-.48,12.38-.91,17,8.68s7.7,24.5,7.7,24.5a44.41,44.41,0,0,1-17.83,5l-6.75-19.41S249.49,156.1,253.27,151.14Z" style="fill:#BA1267"></path><path d="M253.27,151.14c5-.48,12.38-.91,17,8.68s7.7,24.5,7.7,24.5a44.41,44.41,0,0,1-17.83,5l-6.75-19.41S249.49,156.1,253.27,151.14Z" style="opacity:0.1"></path></g><g id="freepik--massage-table--inject-20"><g id="freepik--Table--inject-20"><path d="M334.1,415.19V334.76h-5.74v80.43h0a1.42,1.42,0,0,0,.84,1.17,4.47,4.47,0,0,0,4.06,0A1.4,1.4,0,0,0,334.1,415.19Z" style="fill:#455a64"></path><polygon points="266.24 407.46 343.42 362.91 343.42 339.45 266.24 384.01 266.24 407.46" style="fill:#263238"></polygon><path d="M269.11,452.71V372.29h-5.74v80.42h0a1.41,1.41,0,0,0,.84,1.17,4.47,4.47,0,0,0,4.06,0A1.41,1.41,0,0,0,269.11,452.71Z" style="fill:#455a64"></path><path d="M248.8,365.94V285.51h-5.74v80.43h0a1.42,1.42,0,0,0,.84,1.17,4.47,4.47,0,0,0,4.06,0A1.42,1.42,0,0,0,248.8,365.94Z" style="fill:#455a64"></path><polygon points="180.94 358.21 258.12 313.66 258.12 290.2 180.94 334.76 180.94 358.21" style="fill:#263238"></polygon><path d="M183.81,403.46V323h-5.74v80.42h0a1.41,1.41,0,0,0,.84,1.17,4.47,4.47,0,0,0,4.06,0A1.41,1.41,0,0,0,183.81,403.46Z" style="fill:#455a64"></path><polygon points="148.44 339.45 225.62 294.89 225.62 271.44 148.44 316 148.44 339.45" style="fill:#263238"></polygon><path d="M216.31,347.18V266.75h-5.75v80.43h0a1.42,1.42,0,0,0,.84,1.17,4.47,4.47,0,0,0,4.06,0A1.42,1.42,0,0,0,216.31,347.18Z" style="fill:#455a64"></path><path d="M151.31,384.7V304.28h-5.74V384.7h0a1.42,1.42,0,0,0,.84,1.17,4.47,4.47,0,0,0,4.06,0A1.42,1.42,0,0,0,151.31,384.7Z" style="fill:#455a64"></path><path d="M131,297.93V217.5h-5.74v80.43h0a1.42,1.42,0,0,0,.84,1.17,4.47,4.47,0,0,0,4.06,0A1.42,1.42,0,0,0,131,297.93Z" style="fill:#455a64"></path><polygon points="63.14 290.2 140.32 245.65 140.32 222.19 63.14 266.75 63.14 290.2" style="fill:#263238"></polygon><path d="M66,335.45V255H60.27v80.42h0a1.42,1.42,0,0,0,.84,1.17,4.47,4.47,0,0,0,4.06,0A1.42,1.42,0,0,0,66,335.45Z" style="fill:#455a64"></path><path d="M51.22,250.18,115.68,213a9.57,9.57,0,0,1,8.66,0l105.07,60.66c2.39,1.38,4.33,3.55,4.33,4.85v2.34L160.63,323,46.89,257.37V255C46.89,253.73,48.83,251.56,51.22,250.18Z" style="fill:#BA1267"></path><path d="M165,315.85l64.45-37.22c2.39-1.38,2.39-3.62,0-5L124.34,213a9.57,9.57,0,0,0-8.66,0L51.22,250.18c-2.39,1.38-2.39,3.62,0,5L156.3,315.85A9.57,9.57,0,0,0,165,315.85Z" style="fill:#fff;opacity:0.30000000000000004"></path><polygon points="46.89 257.37 46.89 262.06 160.63 327.73 160.63 323.04 46.89 257.37" style="fill:#37474f"></polygon><polygon points="233.74 280.82 233.74 285.51 160.63 327.73 160.63 323.04 233.74 280.82" style="fill:#263238"></polygon><path d="M169,318.19,233.48,281a9.57,9.57,0,0,1,8.66,0l105.07,60.66c2.39,1.38,4.33,3.55,4.33,4.85v2.34l-73.11,42.22L164.69,325.38V323C164.69,321.74,166.63,319.57,169,318.19Z" style="fill:#BA1267"></path><path d="M282.76,383.86l64.45-37.22c2.39-1.38,2.39-3.62,0-5L242.14,281a9.57,9.57,0,0,0-8.66,0L169,318.19c-2.39,1.38-2.39,3.62,0,5L274.1,383.86A9.57,9.57,0,0,0,282.76,383.86Z" style="fill:#fff;opacity:0.30000000000000004"></path><polygon points="164.69 325.38 164.69 330.07 278.43 395.74 278.43 391.05 164.69 325.38" style="fill:#37474f"></polygon><polygon points="351.54 348.83 351.54 353.52 278.43 395.74 278.43 391.05 351.54 348.83" style="fill:#263238"></polygon><path d="M266.24,417.85a1,1,0,0,1-.65-.24l-85.3-72.71a1,1,0,0,1,1.3-1.52l85.3,72.7a1,1,0,0,1,.11,1.41A1,1,0,0,1,266.24,417.85Z" style="fill:#455a64"></path><path d="M266.24,394.39a1,1,0,0,1-.29,0l-85.3-25.8a1,1,0,0,1-.67-1.24,1,1,0,0,1,1.25-.67l85.3,25.8a1,1,0,0,1-.29,1.95Z" style="fill:#455a64"></path><path d="M148.44,349.83a1,1,0,0,1-.65-.23l-85.3-72.71a1,1,0,0,1,1.3-1.52l85.3,72.7a1,1,0,0,1,.11,1.41A1,1,0,0,1,148.44,349.83Z" style="fill:#455a64"></path><path d="M148.44,326.38a1,1,0,0,1-.29,0l-85.3-25.8a1,1,0,1,1,.58-1.91l85.3,25.79a1,1,0,0,1-.29,2Z" style="fill:#455a64"></path></g><g id="freepik--Pillow--inject-20"><path d="M143.63,233.87c0-1.84-2.75-4.91-6.14-6.87l-13.65-7.88a9.26,9.26,0,0,0-4.71-1.53h0c-2.93,0-14.67,5.67-20.43,9s-18.33,11.34-20.29,14.74c-.64,1.11,22,17.58,24.81,17,6.17-1.29,17.33-6.6,23-10.09,9.35-5.7,14.64-10.45,16.5-12.47C143.64,234.77,143.63,234.26,143.63,233.87Z" style="fill:#f0f0f0"></path><path d="M84.26,249l13.64,7.88c3.39,2,6.14,2.06,6.14.22s-2.75-4.92-6.14-6.87l-13.64-7.88c-3.4-2-6.15-2.06-6.15-.22S80.86,247.05,84.26,249Z" style="fill:#e0e0e0"></path></g></g><g id="freepik--character--inject-20"><path d="M209.72,269.22a7.09,7.09,0,0,0-.17-.93c-.19-.76-3.57-5.79-3.5-5.88s.15-.07.24.12a137.26,137.26,0,0,0-28-23.69c-11.61-7.25-19.33-4.28-26.32-.26,4.75,3.37,12.25,9,16.92,12.87a158.16,158.16,0,0,0,16.53,12.6c3.38,2.26,5.19,4,11.39,6.24,3,1.08,7.63,3.15,10.87,2A2.68,2.68,0,0,0,209.72,269.22Z" style="fill:#b16668"></path><path d="M135,247.29c-6,4-10.26,7.72-12.56,11.49,4.51,17.54,24.73,17.82,38.64,31.43,5.2,5.09,9.09,8.61,9.09,8.61l36.64-26.42S189.5,254.14,180.22,247s-19.66-10.37-28.3-8.39A58.32,58.32,0,0,0,135,247.29Z" style="fill:#BA1267"></path><path d="M135,247.29c-6,4-10.26,7.72-12.56,11.49,4.51,17.54,24.73,17.82,38.64,31.43,5.2,5.09,9.09,8.61,9.09,8.61l36.64-26.42S189.5,254.14,180.22,247s-19.66-10.37-28.3-8.39A58.32,58.32,0,0,0,135,247.29Z" style="opacity:0.30000000000000004"></path><path d="M134.55,213.23a12.44,12.44,0,1,0-19.9,14.94c.13.18.28.34.42.51l-1.46,7.43-6.56-7.27a2.74,2.74,0,0,0-3-2.08,2.54,2.54,0,0,0-2.09,3l3.54-.54a4.53,4.53,0,0,0-1.16,2.49c-.31,2.35,3.62,6,8.4,9,0,0,7.41,6.18,8.88,7.13,3,2,4.79.84,4.79.84l-4.94-15.93a12.44,12.44,0,0,0,13.11-19.5Z" style="fill:#263238"></path><path d="M116.92,238.08c-.34.82-2.08.3-3.42.08s-4.6.55-3.89,4,5.55,4.9,8,4.45c3.06-.56,2.69-2.92,2.69-2.92l12.34,10.08h0c8.12,2.2,20-7.54,11-9.49l-3.79-3.15a9.81,9.81,0,0,0,2.47-1.9c2.17-2.22,2.26-5.31,1-8.51-2-5.15-4.13-8.92-11.42-16.53-8-8.34-18.73-.42-21.77,7.53S116.92,238.08,116.92,238.08Z" style="fill:#b16668"></path><path d="M117.69,239.11c-.3.23-2.92-.83-4.19-1-1.77-.16-6.92-9.84-6.92-9.84a5.12,5.12,0,0,1-2.27-5.14c.29-3.08,3.43-5.84,5.61-7.7,4-3.36,8.35-7.17,9.4-12.46.08-.41.24-.91.65-1a1,1,0,0,1,.75.19,6.69,6.69,0,0,1,2.67,3.82c0,.15.12.32.27.33s.24-.14.3-.26a6.09,6.09,0,0,0,.58-2.12c.07-1,2.22,1,2.43,1.29a8.46,8.46,0,0,1,1.19,6.48c-.5,2.2-2.23,3.91-3.81,5.44a72.2,72.2,0,0,1-11,7.9c-1.24.69-.66,2,1,5.42C115.8,233.53,118.7,238.31,117.69,239.11Z" style="fill:#263238"></path><path d="M139.94,241.17s-7,3.69-9.64,4.11a13.57,13.57,0,0,1-6.1-1.09s2.49,2.21,4.79,2.46c4.68.53,12.38-4.29,12.38-4.29Z" style="fill:#9a4a4d"></path><path d="M126.89,228.4a2.23,2.23,0,0,1-3.43,2.66,3.3,3.3,0,0,0,2.22-.67A3.35,3.35,0,0,0,126.89,228.4Z" style="fill:#263238"></path><path d="M135.8,221.87a2.23,2.23,0,0,1-3.59,2.44,3.26,3.26,0,0,0,3.59-2.44Z" style="fill:#263238"></path><path d="M122.32,225.69l-1.63,2.92a1.75,1.75,0,0,1-.65-2.34A1.64,1.64,0,0,1,122.32,225.69Z" style="fill:#263238"></path><path d="M132.33,236.2l3.2-.94a1.64,1.64,0,0,1-1.08,2.1A1.74,1.74,0,0,1,132.33,236.2Z" style="fill:#9a4a4d"></path><path d="M133.67,218.93l-3.37,0a1.63,1.63,0,0,1,1.65-1.68A1.76,1.76,0,0,1,133.67,218.93Z" style="fill:#263238"></path><polygon points="128.22 225.54 133.52 231.85 136.08 228.1 128.22 225.54" style="fill:#9a4a4d"></polygon><path d="M199.32,285.89s-3.81-39.43-2.48-47.37c1.36-8.19,4.7-11.83,10-12.07,6.63,4.37,9.74,14.09,13.59,23.7s7.45,30,7.16,39.63-8.28,16-17,16.8S199.32,285.89,199.32,285.89Z" style="fill:#37474f"></path><path d="M221.35,292.49a18.52,18.52,0,0,1-11.64-1.2l-6.88,8.24c1.76,4.05,4.26,7.36,7.77,7.05,8.68-.76,16.67-7.23,17-16.8a102.92,102.92,0,0,0-1.75-18.23h0S227.48,291,221.35,292.49Z" style="opacity:0.30000000000000004"></path><path d="M211.15,246.77a27.6,27.6,0,0,0,9.1,3c-1.78-4.45-3.41-8.91-5.32-12.83-.44-.58-.88-1.16-1.33-1.71l-1.43-.79-8.07-.53S205.71,243.74,211.15,246.77Z" style="fill:#263238"></path><path d="M270.66,210.8c-2.49-2.77-4.65.3-5.86,2.53s-1,3.22-1.62,6.66c-.5,2.85-1.4,7.92-3,10.51a3.51,3.51,0,0,1-3.47,1.35c-2.85-.44-8.94-1.36-15.73-2.36l3.68,15.28c5.12-.77,10.12-1.28,14-.86a20.16,20.16,0,0,1,4.15.64,27.64,27.64,0,0,1,4.08,1.65c2,.9,5-.65,6.11-2.67,1.32-2.45.83-4.45.78-7.26,0-1.66-.18-3.35-.2-5a40.48,40.48,0,0,1,.82-6.32,12,12,0,0,0-1-7.45C272.43,215.33,272.31,212.63,270.66,210.8Z" style="fill:#b16668"></path><path d="M212.82,225.71c-2.5-.14-8.58-.86-11.74,3-2.92,4.1,5.75,16,13.79,17.92a32,32,0,0,0,14.09.73c5.51-.78,12.79-2.32,19.42-3.12-2.1-1.22-3.2-11.3-1.28-13.87C235.23,228.64,216.21,225.9,212.82,225.71Z" style="fill:#37474f"></path><path d="M295.81,332.76a3.6,3.6,0,0,0-2.35.12c-3.6.53-5.53,3.7-6.91,6.48-1,2-1.94,4.09-3,6.09-.39.74-2.11,3.29-2.11,3.29s-5.9-4.69-8.6-7.19c-3.29-3-13.51-12.93-19.57-19-9.32-9.38-12.19-12.18-19.93-16.55-7.67-4.7-33.06-16.87-40.94-21.7L173,298.68s5.7,6.16,9.47,8.18c10.93,5.83,33.39,12,48,16.48,4.28,8.53,5.24,11.22,13.49,17.18,7.5,5.41,16.92,10,26.39,16a21.17,21.17,0,0,1,5.08,5c.42.65.81,1.38,1.18,2.05,1.33,2.38,3.32,3.78,6.18,3.49a8,8,0,0,0,5.05-2.68c2.72-3.06,3.06-7.52,5-11.14,1.76-3.34,5-5.44,5.7-9.3C299.14,340.65,298.62,332.91,295.81,332.76Z" style="fill:#b16668"></path><path d="M170.17,298.82A107.42,107.42,0,0,0,187,310.14c12.44,6.51,42.44,15.55,42.44,15.55a54.48,54.48,0,0,0,5.67,7.8c5.89,5.93,18.3,13.08,18.3,13.08s1.27-9.9,11-13.08c0,0-16.13-18.27-22.56-23.44-3.72-3-19.51-11.84-32.13-18.76-.36-15.37-11.71-20.64-11.71-20.64A98.2,98.2,0,0,0,170.17,298.82Z" style="fill:#37474f"></path><path d="M201.47,321.2c-1.25-.47-2.82-1.22-4.22-1.79a28.07,28.07,0,0,1-6.26-3.06c1.86,0,2.72.73,5.32.15a3.79,3.79,0,0,0,2.31-1.45.94.94,0,0,0,.18-.41c.06-.62-.76-.86-1.37-.93-2.49-.3-4.58-1.64-7-2.31-3.53-1-8.24-.48-10.9-1.57s-26.32-16.7-26.32-16.7-7.62-10.29-15.52-21.73c-6.44-9.33-8.87-13.72-13.51-15.08-4.71,3.28-6.5,7.49-5.81,12.59.56,4.16,2.16,7,5.7,11.93A159.32,159.32,0,0,0,137,297.18c2.7,3,4,5.19,9.46,8.91s25.81,13.21,25.81,13.21,13.11,11.21,22.37,10.62a8.76,8.76,0,0,0,6.34-2.55C202.73,325.65,203.87,322.11,201.47,321.2Z" style="fill:#b16668"></path></g><path id="freepik--Hand--inject-20" d="M209.37,218.42a8.31,8.31,0,0,0-1.63,4.72,11.33,11.33,0,0,0,.89,3.52c.39,1.12.72,2.25,1.17,3.33s2.88,3.25.55,3.49c-2.7.28-3.63-2.11-4.91-4-.33-.5-1.17-1.79-1.94-1.34s-.51,1.64-.51,2.26c0,1.11,0,2.22.13,3.32a25,25,0,0,0,1.28,6.48c.27.75,1,2,.4,2.69-1,1.22-2.17-.41-3-.77s-2.1.3-2.91-.6c-.71-.2-.79-.4-1.31-.94s-1.12-.49-1.8-.84c-1.63-.84-2.11-3.28-2.38-4.9-.89-5.15-1.19-8.82.86-13.7a32,32,0,0,1,4.6-8.29" style="fill:#ffc4c3"></path><path id="freepik--hand--inject-20" d="M253.83,243.79a7.44,7.44,0,0,1-3.5-4.26,3.89,3.89,0,0,0-.59-1.21,8.89,8.89,0,0,0-1.67-2.26,1.78,1.78,0,0,0-1.49-.45c-.65.11-.87.75-1.44,1s-1.46,0-2.13.16c-.95.18-1.1.84-1.7,1.49-.37.39-.92.42-1.34.75a2.88,2.88,0,0,0-1.22,1.6,4.92,4.92,0,0,0,3,5.87c2.51.81,8-.09,10.49,0s3.54-2.7,3.54-2.7Z" style="fill:#ffc4c3"></path></g></g></svg>